ply
format ascii 1.0
comment https://github.com/mikedh/trimesh
element vertex 673
property float x
property float y
property float z
element face 1342
property list uchar int vertex_indices
end_header
255.36199951 222.02200317 119.00099945
257.00698853 223.74000549 122.26999664
254.86000061 227.90899658 125.18499756
246.02499390 223.20500183 114.01499939
245.10200500 221.58099365 112.48999786
243.67100525 241.50500488 130.01899719
259.75799561 90.83200073 181.69999695
259.95901489 89.84500122 183.86199951
269.74600220 90.40000153 184.39399719
275.34399414 91.25099945 184.42100525
275.32699585 92.21099854 182.38999939
269.71701050 89.03199768 188.44200134
275.59500122 100.09799957 199.52999878
281.25201416 103.24700165 201.85699463
112.92400360 110.97100067 163.90600586
112.36299896 110.75099945 160.45799255
109.83999634 113.97699738 159.03599548
111.03900146 114.26200104 152.46699524
110.32199860 115.29399872 151.66799927
114.70800018 122.58300018 145.13299561
113.03900146 119.43199921 147.79600525
118.87799835 122.63400269 141.33700562
195.37699890 198.53700256 77.26699829
198.98399353 200.62500000 79.53399658
206.80799866 197.80799866 82.66500092
205.18299866 202.90100098 82.89800262
199.91000366 208.17900085 84.98300171
198.65100098 206.35899353 82.96099854
196.21299744 206.74299622 82.53199768
200.84899902 185.19799805 78.34700012
203.41700745 185.22999573 79.42600250
194.27699280 189.98300171 77.04699707
208.34300232 137.72500610 281.12399292
209.51199341 132.93099976 278.54800415
207.52000427 132.18400574 278.00799561
213.27799988 139.83999634 281.53698730
203.55000305 138.55700684 280.93499756
206.64399719 149.63999939 286.02301025
204.15400696 158.97799683 289.08300781
199.19999695 168.72000122 293.45999146
199.07899475 175.36199951 291.66000366
145.98500061 176.14599609 77.29499817
144.05000305 174.51499939 79.94899750
144.43600464 173.25799561 80.72299957
154.62500000 173.21600342 74.64700317
149.77499390 174.60200500 76.12500000
148.92199707 176.39500427 75.18499756
158.27900696 176.20700073 70.58699799
157.96099854 182.00300598 69.13300323
163.91400146 183.18099976 70.97699738
139.36999512 185.83599854 74.16500092
149.00300598 186.67300415 68.79599762
152.79499817 188.16000366 66.90499878
156.06199646 187.81700134 67.85399628
159.24899292 193.91799927 69.29100037
157.54100037 195.56799316 68.81400299
143.91299438 199.02900696 67.97899628
137.49600220 191.62899780 70.61599731
138.74200439 191.38800049 69.80899811
134.03100586 195.06799316 73.20600128
226.29400635 86.02700043 206.06199646
222.09500122 81.12599945 200.77699280
214.13099670 80.49299622 198.40499878
216.65600586 80.54499817 195.57299805
217.73100281 80.50399780 200.30900574
217.39300537 80.72399902 202.66799927
212.49699402 81.02100372 210.67399597
273.43099976 241.99699402 170.47799683
272.01800537 239.74099731 161.86900330
281.63598633 230.78500366 169.68600464
283.10299683 229.30599976 173.05799866
143.76100159 81.32599640 152.19700623
137.10800171 83.55300140 159.41099548
138.21899414 82.86900330 153.39900208
138.08799744 84.53600311 163.49899292
142.81500244 80.79399872 160.62500000
130.85899353 89.84799957 166.39599609
147.05999756 82.46499634 168.64700317
154.97700500 80.90699768 162.10800171
160.59500122 81.55999756 156.63099670
224.44000244 142.82200623 101.55400085
256.94601440 140.85899353 109.08399963
260.84600830 126.34999847 128.58000183
257.68499756 121.81099701 127.01899719
248.76899719 143.46899414 101.38099670
243.66499329 127.80899811 107.49900055
245.77400208 128.42100525 107.48300171
256.23199463 127.98200226 116.67299652
253.49400330 133.44299316 107.92199707
292.10598755 184.19599915 158.81399536
290.12298584 186.84800720 153.26899719
289.19100952 191.55900574 154.42199707
288.85900879 190.95399475 239.91600037
289.83700562 190.27400208 238.07299805
285.83898926 199.03900146 239.66900635
286.71600342 205.13200378 234.31799316
286.97900391 202.91099548 235.88900757
289.02600098 201.38499451 232.08799744
290.50201416 198.07600403 232.10800171
290.62500000 195.87300110 233.10299683
306.47000122 145.16299438 190.50199890
304.71600342 153.49099731 202.13299561
297.28500366 180.17100525 199.08500671
298.29501343 177.24600220 195.65899658
297.79000854 179.65699768 191.32200623
296.80599976 183.36799622 194.51899719
297.97500610 176.70700073 188.76699829
307.86599731 137.52600098 198.16499329
307.07501221 133.18400574 196.19500732
298.98999023 131.34800720 218.16600037
300.39498901 133.37500000 221.17399597
303.79998779 127.81900024 201.25500488
305.78900146 131.74600220 204.60899353
304.32998657 134.46000671 209.63099670
177.74800110 132.61500549 103.23699951
175.89399719 134.50199890 102.46700287
173.51600647 134.32899475 102.29000092
176.50599670 129.51899719 104.80999756
177.96299744 129.60699463 105.10500336
168.25799561 137.42300415 101.99800110
289.37100220 158.94599915 245.33399963
291.89199829 157.90800476 243.23500061
295.25201416 160.02000427 240.62699890
284.81799316 165.17599487 251.39100647
290.93899536 168.90899658 246.56100464
291.78900146 178.85299683 234.88099670
292.09298706 177.50100708 234.41299438
292.19699097 188.76800537 220.99699402
295.13198853 176.65199280 216.31100464
209.35099792 111.73400116 128.06399536
213.11300659 114.91699982 123.67400360
280.98098755 217.86399841 149.16099548
285.56500244 212.54299927 156.49499512
284.79400635 215.33500671 158.05400085
285.07998657 214.12699890 163.46299744
106.62100220 260.04400635 262.44400024
113.37999725 254.73699951 270.26199341
116.74299622 256.38299561 268.30398560
112.87899780 252.27000427 273.46701050
111.44200134 252.48100281 273.61898804
109.25000000 251.79200745 273.76000977
109.60199738 247.45100403 272.48199463
98.05300140 239.01800537 258.12600708
94.28600311 245.08099365 254.08399963
93.78099823 239.96400452 253.30999756
92.49099731 248.79200745 252.30799866
79.69699860 230.61000061 240.85099792
77.67800140 228.54400635 238.14799500
76.78199768 222.89999390 238.10099792
96.64600372 251.81199646 257.39999390
98.12599945 251.22399902 259.05899048
94.13600159 261.63400269 253.32400513
93.46800232 259.10501099 253.99800110
67.22100067 243.66799927 182.66000366
66.44999695 242.58299255 181.98800659
63.21200180 239.24000549 186.78799438
123.45600128 301.56698608 171.19200134
112.29000092 295.54199219 172.63999939
108.81700134 292.43200684 175.76600647
108.66300201 292.04800415 184.11000061
105.17199707 287.27200317 183.07899475
117.06500244 296.74200439 191.73500061
115.97000122 301.02099609 184.05000305
114.67800140 299.46301270 179.51699829
115.52999878 300.58999634 177.57899475
119.94699860 302.12298584 181.47700500
119.85299683 295.33599854 195.66600037
130.97099304 277.93798828 239.90800476
132.79200745 279.88299561 237.92700195
132.26899719 283.26300049 233.50100708
130.74499512 283.27499390 231.66999817
183.76699829 219.34700012 283.76098633
166.78799438 211.35699463 285.14801025
142.51300049 275.03601074 249.71600342
147.22599792 267.19601440 260.73098755
158.56399536 266.38598633 261.82699585
158.39999390 265.05398560 262.53900146
157.25399780 264.69900513 262.88800049
147.54499817 286.26400757 234.99499512
62.30500031 176.86599731 235.53700256
59.15200043 177.77499390 232.79499817
64.14600372 180.40499878 236.91499329
67.00199890 161.52699280 232.07400513
69.66799927 163.42399597 237.98199463
67.90599823 162.94999695 236.44299316
71.25499725 169.34899902 243.10200500
72.05100250 184.49600220 244.22900391
75.59500122 181.53399658 245.93800354
45.46699905 212.30999756 208.91600037
39.90800095 204.11500549 200.03599548
41.74200058 204.30099487 204.26300049
87.31999969 141.33900452 182.21600342
88.36900330 139.02400208 185.42199707
87.67400360 139.21099854 188.96600342
95.29599762 131.57499695 190.41999817
94.98400116 130.56500244 185.73300171
93.52999878 132.00100708 184.48599243
91.07299805 134.49499512 189.77200317
92.38700104 134.30299377 182.25399780
92.96900177 136.74099731 176.65899658
72.76899719 170.85899353 160.01899719
75.07800293 173.14399719 155.38900757
73.97200012 175.57899475 154.97200012
184.89999390 252.87699890 267.69601440
181.98899841 251.77000427 269.07901001
179.63099670 252.07899475 269.25900269
177.19900513 250.63099670 270.60598755
162.56700134 315.33898926 192.70399475
89.52200317 176.33000183 139.21000671
89.91100311 177.91299438 137.73800659
165.84500122 109.25900269 264.98901367
148.85000610 108.62599945 262.60501099
147.13299561 112.89299774 267.40798950
145.82699585 113.56099701 267.67700195
161.86799622 96.73100281 244.61799622
155.67199707 99.12799835 242.50100708
153.57299805 99.68199921 238.34899902
155.50900269 98.87999725 239.15600586
159.72200012 101.02400208 257.37298584
155.56199646 100.96099854 256.04598999
166.46299744 98.84600067 257.39001465
170.92199707 98.32299805 254.61599731
162.59399414 97.83300018 252.46800232
160.25000000 97.57700348 251.60099792
203.45300293 313.15301514 131.35200500
202.05499268 308.08200073 127.18399811
196.38800049 306.09500122 121.73000336
191.05900574 308.68399048 119.37200165
193.58299255 314.01400757 120.56900024
183.86999512 312.70700073 119.56500244
186.23699951 313.63101196 119.17099762
184.66099548 315.56900024 120.92500305
182.87699890 315.75500488 122.56400299
183.74800110 317.93701172 124.62100220
180.76600647 315.26901245 125.80300140
190.21499634 321.95700073 121.26799774
185.87800598 321.39099121 129.22099304
199.75599670 315.56500244 197.77499390
217.17700195 300.38000488 215.25300598
214.59599304 302.85299683 212.37500000
221.84100342 302.10598755 211.66099548
220.22500610 305.73999023 209.59300232
202.65400696 334.79400635 172.31700134
204.20500183 336.59298706 168.20899963
210.37500000 333.69198608 168.07800293
214.06500244 328.11999512 166.19000244
214.27400208 325.12100220 161.01600647
216.91799927 321.51098633 161.22399902
217.37100220 318.46398926 160.64999390
210.99800110 324.24499512 153.69099426
111.35700226 275.36700439 155.12600708
110.94799805 281.09201050 157.19099426
113.26799774 286.52398682 160.59800720
144.79100037 299.74899292 153.52900696
174.66600037 328.08999634 167.91200256
172.43400574 327.69100952 169.83999634
174.32400513 330.89199829 173.57600403
172.88099670 329.53900146 175.84399414
175.43400574 331.32998657 180.15100098
178.88099670 329.58401489 185.13099670
193.45100403 330.30700684 180.86999512
192.67799377 332.75900269 177.18200684
188.69299316 331.73098755 179.91099548
183.39399719 334.03601074 169.69500732
163.43099976 321.54400635 170.27299500
159.48500061 319.08300781 170.04899597
159.27099609 317.32199097 164.05099487
159.78399658 313.71600342 159.05799866
127.52400208 293.20098877 156.74400330
125.58599854 289.26000977 153.50500488
123.15699768 284.01300049 152.63900757
167.16900635 278.26000977 249.35899353
170.14399719 277.73400879 249.75100708
172.43899536 281.56600952 246.84899902
173.12500000 290.83700562 233.68400574
167.48199463 287.62399292 238.16900635
177.43299866 269.37799072 255.18299866
166.85699463 254.11799622 268.10598755
172.86399841 255.99000549 266.71200562
149.99800110 242.22200012 279.20599365
145.63000488 239.35200500 282.82800293
146.88200378 230.11300659 285.01000977
140.48100281 231.41299438 284.75299072
136.25199890 229.94400024 284.06799316
73.07399750 202.61300659 138.38999939
66.71399689 202.36999512 142.96099854
63.52199936 204.44500732 148.02600098
59.00299835 228.79600525 159.84199524
59.24200058 225.16299438 152.11199951
61.82099915 233.71699524 155.35099792
60.40499878 232.38999939 148.90400696
71.62200165 236.36000061 147.29600525
71.50499725 237.33599854 148.15499878
49.77500153 174.76499939 222.03100586
49.72000122 170.05799866 222.65899658
48.00299835 171.62500000 215.66900635
48.20399857 166.74499512 216.88099670
47.97800064 167.87699890 214.09899902
48.45999908 164.15800476 210.19599915
54.25199890 161.61099243 207.00599670
51.70800018 167.79200745 202.30700684
59.13600159 159.97200012 212.44700623
87.63400269 205.61700439 249.34599304
91.66699982 203.13900757 253.17199707
97.65200043 202.04400635 255.08799744
68.67900085 162.54200745 182.57499695
71.59600067 158.57099915 180.51600647
64.25099945 175.94500732 175.55499268
240.94200134 296.22500610 183.05000305
243.16999817 294.53601074 181.64199829
242.37899780 294.00299072 185.79600525
237.92799377 300.37100220 176.82699585
296.25100708 172.21000671 216.30799866
299.71499634 157.83900452 213.93200684
300.79901123 150.05299377 217.84800720
301.81500244 144.50399780 215.46400452
299.95700073 147.78500366 222.70700073
278.93600464 188.33000183 254.68899536
243.17399597 114.11799622 267.13198853
248.88299561 114.11399841 263.20098877
247.32400513 115.59400177 264.60900879
253.91099548 121.21600342 260.89300537
272.56698608 123.95300293 238.50999451
276.10400391 126.18800354 236.40199280
274.14001465 123.95600128 235.87199402
297.59698486 132.16000366 178.73399353
299.57501221 136.34800720 178.44999695
297.57800293 137.81599426 172.67399597
293.06100464 124.34999847 176.82800293
291.29199219 119.96199799 176.95899963
294.08200073 119.08399963 183.60699463
265.10699463 118.60099792 241.36700439
261.91500854 117.37000275 244.53799438
263.14801025 120.12100220 249.69900513
264.69799805 122.66600037 249.84199524
262.69900513 123.85500336 254.53599548
236.70599365 109.41899872 256.08999634
233.56399536 107.87799835 252.92900085
233.45199585 108.87699890 255.75199890
228.21499634 108.25299835 255.91499329
294.91101074 179.57099915 178.91000366
294.22799683 182.88800049 178.03700256
292.66299438 187.35600281 175.53900146
275.91299438 150.83399963 121.90100098
234.54899597 101.60800171 141.81799316
242.81700134 102.98699951 143.88699341
268.80801392 203.06100464 268.76901245
268.22100830 205.63800049 267.41101074
265.94799805 207.31700134 271.85101318
260.62600708 210.43800354 274.25100708
266.84298706 247.43800354 218.42300415
271.46899414 244.55200195 215.43400574
264.51400757 255.49600220 204.80900574
269.82299805 252.80200195 200.30999756
261.94000244 259.03100586 202.53300476
231.35800171 211.97599792 276.84600830
228.39700317 212.53599548 277.04501343
226.68299866 207.64100647 278.37399292
224.92799377 228.94999695 275.20401001
228.67999268 233.09500122 271.36099243
274.65100098 235.62399292 234.38099670
275.07299805 232.94099426 238.00399780
287.23400879 233.73100281 207.50799561
290.59600830 227.07299805 206.28399658
290.70800781 219.75199890 203.19900513
282.35501099 227.30900574 222.22099304
257.54000854 195.73899841 278.07501221
261.14700317 194.42199707 278.46301270
260.08999634 190.31199646 276.87701416
249.52299500 258.18399048 241.22500610
245.98199463 258.92098999 246.15199280
242.15400696 256.91500854 251.18699646
239.76300049 252.26699829 255.17300415
240.94799805 247.61000061 257.62200928
247.40400696 248.17900085 252.89399719
186.46699524 89.57900238 228.11199951
184.22700500 89.21900177 228.15800476
181.96000671 88.89600372 228.20899963
144.31399536 110.07199860 258.86401367
143.71499634 111.08100128 261.15100098
144.88600159 119.68900299 276.21798706
152.60299683 121.87500000 280.04400635
148.64999390 128.84899902 284.68798828
140.51199341 136.36099243 285.20800781
136.06199646 132.71499634 282.08898926
138.14199829 133.47399902 283.39099121
137.19700623 127.17700195 279.65301514
139.42799377 127.09300232 280.92599487
142.86500549 124.67099762 280.84799194
144.65400696 125.83699799 283.07400513
138.18200684 123.59300232 276.99600220
138.43299866 122.34899902 274.76098633
138.18600464 115.09300232 259.84799194
134.19799805 115.68099976 255.95599365
134.41999817 114.41699982 254.03500366
131.79499817 117.22799683 250.86599731
277.25100708 198.15600586 121.14900208
281.53100586 193.22799683 120.34899902
285.55398560 186.55400085 121.76599884
286.15499878 181.80000305 124.07599640
286.27099609 180.04600525 125.84500122
286.26599121 174.02600098 127.96399689
285.67001343 191.95399475 135.00000000
283.94799805 200.24800110 135.00999451
271.89401245 225.87800598 143.15199280
269.84799194 226.30099487 140.96800232
268.80899048 225.25799561 139.04499817
266.54901123 235.93499756 147.71499634
264.11499023 196.64799500 95.88600159
263.18200684 194.25500488 95.83300018
268.99099731 193.39599609 97.51999664
264.89599609 189.19799805 98.19400024
126.86499786 99.42700195 181.23800659
124.13899994 99.44499969 155.84300232
122.55000305 101.25099945 150.93600464
137.46299744 88.93000031 131.57499695
143.02499390 85.80200195 130.99800110
177.82699585 249.45799255 99.81900024
158.09700012 254.86999512 107.37200165
160.14999390 261.32299805 110.24500275
158.79200745 261.26300049 111.96900177
151.11900330 268.44299316 125.55999756
126.13547516 248.52536011 133.52210999
222.87791443 285.73971558 140.24304199
167.99302673 140.39303589 283.69338989
145.53971863 307.12466431 192.70529175
123.82341766 133.18360901 269.60504150
70.42113495 197.27999878 238.22149658
215.04542542 318.64044189 181.83143616
55.72317123 188.18656921 183.57223511
137.13455200 295.54107666 153.59782410
209.27015686 262.83285522 249.51574707
146.52598572 211.45755005 281.28369141
130.62704468 285.73983765 225.54615784
134.71781921 299.54812622 197.61878967
91.71109009 169.95738220 140.83914185
251.58283997 258.61874390 230.90470886
179.01115417 299.48641968 220.67286682
182.61026001 187.73077393 287.28942871
179.84533691 267.66958618 109.75172424
162.04109192 208.72492981 76.57427979
116.42289734 161.42936707 123.47597504
90.23963165 147.36470032 238.46022034
254.49290466 241.16043091 250.84031677
220.92648315 319.83850098 171.20164490
167.15965271 128.04017639 107.44629669
65.40461731 233.97067261 208.85932922
206.97427368 246.84400940 266.37683105
153.05513000 177.55032349 72.63031006
100.25087738 188.33549500 119.39687347
182.45147705 326.11517334 187.79475403
256.36892700 147.37472534 263.82751465
245.82220459 243.00440979 257.68212891
108.32317352 197.57826233 101.37631226
233.16133118 259.20892334 248.86341858
261.40829468 108.35513306 158.66217041
89.78580475 254.47248840 240.88838196
172.75590515 110.19705963 121.74919128
116.93195343 165.98269653 119.54793549
87.22359467 156.16862488 244.58433533
269.68679810 165.93931580 111.08676910
246.95158386 187.36819458 280.18252563
119.76601410 113.53675842 200.41954041
115.27194214 165.56185913 264.02304077
92.47646332 207.29396057 119.90854645
195.25643921 85.06983185 208.21553040
190.04612732 175.42227173 290.96572876
159.93251038 280.68466187 124.92679596
99.21627808 232.68029785 258.35260010
180.99456787 288.84780884 234.69575500
189.33445740 154.83879089 93.99027252
218.49206543 89.38414001 224.02059937
169.13623047 321.83526611 187.47401428
223.42843628 272.36840820 128.45243835
211.52285767 311.13198853 201.30784607
233.95693970 259.19241333 135.99882507
275.82254028 114.86983490 167.70483398
187.19392395 285.51577759 115.23937988
168.45701599 200.26065063 285.61111450
129.90040588 104.52334595 205.08436584
168.76017761 289.32476807 123.03733826
206.13821411 207.30360413 87.61278534
233.20903015 255.25569153 253.26690674
206.68492126 108.02186584 258.25784302
93.66500854 179.29272461 133.29650879
233.16760254 253.08848572 128.56227112
123.26128387 167.85801697 109.73083496
260.15515137 148.79330444 263.24752808
144.85459900 131.13168335 110.26146698
283.10009766 151.08067322 138.76286316
251.55928040 111.76919556 244.14958191
145.38606262 227.23138428 96.48822784
184.92903137 98.91950989 247.83230591
241.93592834 274.41503906 161.88601685
149.17016602 94.07666016 209.20162964
132.62429810 162.70774841 101.40674591
246.81422424 159.50642395 99.39528656
294.64956665 170.94308472 225.18212891
250.30148315 95.02605438 205.96380615
144.97302246 160.17085266 281.58529663
237.46752930 269.66070557 235.17840576
222.40060425 127.96888733 111.78811646
138.36860657 114.66483307 124.60900116
252.18089294 167.71697998 99.53537750
98.32066345 276.64065552 192.60362244
75.25010681 163.83360291 165.28108215
50.56988144 215.25212097 185.27896118
102.11910248 123.21284485 178.36473083
172.06610107 85.20657349 187.95265198
85.66231537 237.98168945 143.70530701
159.38385010 86.13549805 194.53424072
283.31127930 133.76515198 236.95487976
266.35473633 155.80889893 261.49914551
214.38677979 180.72058105 286.18875122
272.33471680 130.19990540 143.11044312
171.48086548 208.75015259 78.63157654
210.60366821 151.97352600 94.63020325
285.78378296 153.01615906 245.18753052
190.43371582 95.05145264 148.15975952
168.99159241 156.35485840 286.98074341
272.85571289 176.06086731 110.98543549
153.22882080 138.99397278 284.76229858
210.88845825 238.97328186 270.13769531
122.64410400 194.87193298 87.70458984
90.28452301 268.39627075 184.56513977
238.90168762 97.95826721 223.10342407
153.17485046 223.09580994 84.52134705
75.36948395 152.20591736 212.71200562
180.19665527 293.41409302 116.98687744
285.70458984 119.50154114 171.89703369
170.80052185 90.91441345 142.61129761
170.96780396 92.71331787 229.68540955
201.24678040 320.56524658 137.05358887
271.93341064 245.35415649 182.11441040
184.78195190 216.82298279 86.55957794
88.51808167 140.00407410 197.43452454
145.35711670 301.70303345 203.42036438
167.81657410 228.01968384 87.94403076
198.43685913 108.50641632 258.48260498
265.75344849 194.26078796 272.63708496
94.19890594 218.04257202 124.34104919
176.01435852 155.68020630 288.16943359
89.52668762 199.72042847 124.72405243
229.01747131 271.93331909 235.68727112
274.41394043 245.32853699 198.41145325
168.45640564 302.16232300 131.17944336
190.69869995 286.03842163 116.58710480
189.03643799 110.83457947 125.07556915
151.78010559 87.78098297 193.14677429
226.78776550 252.75918579 120.11080170
192.19947815 81.81755066 183.58885193
184.49690247 276.24218750 248.21517944
232.34490967 286.09707642 219.77783203
52.73452759 218.50201416 181.97700500
226.29484558 83.55735016 196.29017639
152.72415161 301.57571411 207.99945068
248.39266968 207.24307251 102.06478882
189.39093018 325.50738525 141.76077271
222.22550964 239.19548035 267.65960693
149.48745728 139.08830261 284.97589111
136.76112366 122.44328308 271.68457031
257.43490601 166.82835388 102.03581238
149.44845581 309.92501831 164.68943787
85.41384125 263.99600220 179.53552246
82.75807190 249.68289185 151.27371216
204.69255066 303.11810303 127.48320770
294.78167725 144.59480286 165.90332031
230.71997070 163.81146240 92.45143127
222.53958130 165.83355713 91.31127930
214.98599243 248.87091064 116.20449829
120.20652008 254.97590637 140.23767090
184.40678406 120.71965790 271.41851807
105.48812103 122.89551544 152.62840271
45.64166260 182.61177063 208.65603638
122.18167877 147.10452271 125.36431885
67.64778137 235.62266541 216.48896790
163.38386536 302.93429565 210.83555603
280.56796265 117.00707245 218.97212219
125.35498047 210.32806396 271.63711548
191.20874023 156.62518311 287.89303589
89.17440033 265.77499390 167.07551575
219.14653015 175.06301880 286.53784180
235.91017151 110.40915680 131.48091125
201.69004822 256.32537842 258.06362915
183.92466736 147.12109375 97.72807312
142.28945923 127.10998535 114.88570404
49.44042969 203.69670105 181.08360291
275.05065918 241.69862366 184.47669983
254.50236511 204.33282471 100.72234344
295.54919434 167.28919983 173.61329651
263.16159058 100.75186157 207.18608093
111.54582214 133.04583740 246.82543945
125.96473694 220.33462524 273.49868774
69.75695801 242.61712646 199.47044373
226.63035583 152.19377136 97.26407623
154.62864685 246.73696899 274.47912598
221.87284851 87.52729797 179.11372375
260.95001221 140.55648804 260.64007568
91.51129913 166.31748962 144.77262878
153.79656982 220.08615112 283.72869873
64.97234344 224.88076782 220.17913818
215.73005676 223.59057617 276.46405029
158.19570923 163.42698669 286.54455566
220.42927551 120.57875824 267.48483276
229.53823853 119.93117523 268.11654663
113.22682953 145.81875610 137.13438416
142.29278564 103.38185120 224.90109253
284.49603271 136.01568604 238.70022583
202.84278870 295.51626587 223.23538208
148.33375549 311.71490479 187.64125061
156.72149658 288.17678833 133.27877808
83.52513123 259.30337524 191.97467041
135.13610840 253.28523254 270.13952637
149.54557800 315.50735474 182.10456848
50.60042572 200.99288940 217.28411865
171.97882080 186.02188110 286.27960205
243.05900574 106.84251404 139.47999573
289.09829712 179.11228943 145.90625000
140.41665649 209.52622986 83.39171600
233.48699951 236.60006714 267.26724243
228.61689758 215.67552185 102.52101898
243.52178955 88.19876862 197.07626343
104.53588867 283.00234985 203.40905762
171.89656067 317.24139404 196.31610107
199.91635132 223.62757874 278.51269531
273.34353638 219.92199707 138.96369934
300.59338379 164.82591248 204.97167969
71.90797424 243.46531677 208.43624878
76.40441895 210.66665649 135.58090210
224.26039124 149.66748047 276.29739380
94.29508209 260.61328125 247.43827820
233.25801086 235.03744507 268.38961792
286.32107544 115.95149231 176.23855591
193.26765442 204.82751465 285.04238892
199.75534058 134.97810364 105.91747284
82.93958282 222.76295471 134.32859802
80.67556000 248.69097900 217.84722900
120.28919220 255.05671692 270.87838745
246.43847656 229.10713196 266.25531006
121.70053864 266.02514648 257.03717041
124.93508911 298.62478638 166.23175049
67.47174072 242.14477539 191.33357239
125.71375275 113.61163330 137.92340088
243.33309937 288.04534912 190.63862610
256.86740112 187.53808594 96.18899536
272.34152222 168.11529541 113.72922516
128.10856628 146.94381714 116.69799042
92.88389587 171.36984253 254.46467590
164.04820251 270.04376221 114.81898499
104.67956543 123.48873138 188.43794250
121.33504486 163.97416687 267.79364014
286.11270142 230.77957153 199.27539062
98.16223145 228.29777527 131.59388733
231.00079346 307.10510254 174.22380066
193.36990356 85.47565460 172.34730530
134.90209961 296.17517090 204.05369568
205.02233887 202.56082153 283.32315063
229.64578247 194.94836426 280.70162964
160.73455811 210.69825745 283.87133789
216.20390320 181.96838379 86.65105438
281.93231201 237.30682373 209.79844666
70.04113007 244.68821716 164.62965393
253.44999695 259.65795898 158.69326782
251.80009460 277.73452759 177.54667664
231.79130554 198.14140320 90.72407532
286.59164429 169.87477112 131.56120300
203.41213989 164.26576233 88.31862640
198.37588501 261.28070068 112.42766571
102.48287964 151.87959290 260.59219360
97.87893677 210.30279541 115.06130981
186.84548950 102.96327972 132.86689758
57.93696594 205.46469116 162.43972778
99.10708618 141.93421936 241.25323486
3 183 185 184
3 667 549 569
3 123 121 124
3 622 161 162
3 343 88 81
3 112 113 110
3 13 109 110
3 504 160 524
3 365 362 361
3 625 403 397
3 237 260 450
3 227 226 546
3 16 572 18
3 537 526 417
3 110 113 316
3 634 85 501
3 416 530 79
3 494 217 216
3 274 437 576
3 166 622 433
3 450 437 237
3 285 202 200
3 318 487 451
3 280 139 282
3 359 358 349
3 221 220 222
3 130 547 118
3 616 582 86
3 58 46 50
3 361 347 96
3 461 657 581
3 646 19 574
3 578 303 304
3 623 555 576
3 599 658 172
3 233 232 234
3 178 576 555
3 239 241 237
3 248 247 311
3 313 626 312
3 435 208 209
3 120 517 121
3 86 582 85
3 560 426 393
3 492 376 375
3 77 78 510
3 353 362 544
3 276 203 551
3 246 249 244
3 429 671 307
3 482 372 371
3 248 311 423
3 191 192 299
3 336 338 337
3 585 488 415
3 99 125 126
3 340 341 106
3 227 230 228
3 542 453 449
3 372 447 558
3 116 119 44
3 546 226 667
3 11 621 61
3 507 412 649
3 350 351 352
3 459 668 184
3 479 412 548
3 403 131 132
3 377 510 465
3 229 230 528
3 349 348 443
3 663 662 493
3 262 260 261
3 549 226 473
3 443 348 361
3 417 477 667
3 515 55 440
3 382 541 521
3 330 9 10
3 613 165 162
3 319 321 320
3 253 562 266
3 63 7 554
3 662 423 493
3 174 639 637
3 581 629 461
3 668 183 184
3 461 368 367
3 619 373 372
3 431 454 543
3 118 501 130
3 305 306 300
3 47 584 114
3 199 198 191
3 84 81 88
3 464 290 635
3 230 477 528
3 93 125 99
3 573 298 297
3 625 1 406
3 512 517 123
3 390 388 387
3 222 220 223
3 73 414 415
3 527 197 535
3 73 415 416
3 16 17 15
3 503 567 644
3 123 124 539
3 611 627 636
3 45 43 41
3 497 313 312
3 624 522 204
3 21 642 20
3 299 197 301
3 369 361 360
3 189 155 506
3 349 358 355
3 209 284 542
3 375 376 66
3 282 432 281
3 289 155 154
3 123 517 120
3 281 432 599
3 111 112 110
3 342 341 89
3 190 614 188
3 147 148 146
3 538 571 220
3 564 251 250
3 235 231 232
3 620 556 664
3 464 628 290
3 26 25 27
3 249 224 532
3 318 597 487
3 548 412 76
3 367 366 461
3 614 427 148
3 55 53 52
3 623 576 437
3 361 95 365
3 286 200 307
3 103 626 101
3 147 600 188
3 468 141 140
3 537 440 526
3 19 20 572
3 450 260 259
3 31 29 49
3 259 437 450
3 256 255 266
3 475 662 407
3 4 620 549
3 143 145 146
3 559 521 541
3 173 169 168
3 375 471 492
3 635 290 291
3 325 328 327
3 461 366 657
3 671 429 586
3 290 288 287
3 36 37 424
3 346 94 96
3 488 585 646
3 190 188 189
3 601 624 656
3 381 220 210
3 59 56 58
3 508 550 465
3 652 570 422
3 371 372 373
3 484 435 209
3 113 315 316
3 631 619 359
3 70 587 362
3 279 277 595
3 650 499 578
3 405 2 407
3 514 489 327
3 263 254 256
3 670 130 129
3 566 589 100
3 528 419 648
3 221 483 220
3 587 533 353
3 118 547 457
3 354 352 353
3 174 177 175
3 188 614 148
3 567 496 84
3 493 423 311
3 234 253 267
3 121 607 110
3 283 432 282
3 382 521 559
3 224 565 225
3 216 217 215
3 645 520 399
3 10 9 8
3 34 36 381
3 652 540 509
3 650 383 499
3 303 578 141
3 134 133 70
3 141 283 140
3 99 92 93
3 656 633 40
3 556 588 664
3 269 545 610
3 104 341 342
3 660 360 362
3 573 297 296
3 221 222 377
3 35 629 581
3 22 28 23
3 598 435 572
3 168 167 173
3 451 487 461
3 5 407 2
3 84 80 594
3 633 171 172
3 112 111 108
3 363 70 651
3 365 95 363
3 352 351 353
3 216 394 606
3 209 285 284
3 56 526 440
3 430 269 268
3 530 670 518
3 638 359 349
3 73 72 76
3 406 405 625
3 654 63 550
3 610 467 269
3 580 158 157
3 193 197 299
3 500 543 371
3 649 462 194
3 101 104 103
3 464 669 453
3 344 6 596
3 76 413 414
3 244 428 444
3 111 13 9
3 515 28 22
3 196 195 197
3 260 474 242
3 333 331 577
3 559 383 382
3 483 571 538
3 344 130 582
3 66 471 375
3 654 79 518
3 667 620 481
3 235 229 231
3 656 657 357
3 586 506 288
3 176 277 206
3 270 421 570
3 134 342 132
3 421 419 420
3 61 621 60
3 333 335 319
3 305 200 306
3 549 2 0
3 267 253 266
3 385 384 389
3 595 177 279
3 520 398 399
3 21 19 646
3 572 435 605
3 317 124 92
3 126 125 122
3 358 359 558
3 15 507 16
3 80 634 516
3 301 197 527
3 259 623 437
3 212 213 211
3 572 306 505
3 656 358 601
3 471 336 337
3 638 452 373
3 381 382 389
3 458 486 646
3 274 273 469
3 295 294 293
3 150 149 143
3 11 590 498
3 439 477 417
3 377 222 223
3 110 122 121
3 261 260 242
3 69 70 133
3 247 246 245
3 191 572 199
3 327 489 566
3 547 670 457
3 434 425 162
3 87 88 343
3 280 279 177
3 142 302 468
3 88 87 86
3 466 541 39
3 186 303 302
3 203 447 583
3 588 556 4
3 56 440 55
3 22 55 515
3 344 596 654
3 578 283 592
3 188 446 155
3 146 152 575
3 122 125 93
3 441 574 435
3 666 29 568
3 320 318 319
3 660 362 353
3 308 311 444
3 158 160 159
3 480 545 229
3 263 261 243
3 184 442 459
3 525 490 319
3 618 669 491
3 168 169 167
3 364 98 127
3 185 179 294
3 619 558 359
3 483 471 339
3 340 589 89
3 191 198 192
3 319 490 332
3 217 214 215
3 503 561 84
3 178 173 275
3 238 241 608
3 243 235 557
3 445 488 119
3 639 151 135
3 51 46 58
3 434 166 655
3 266 255 254
3 619 372 558
3 42 50 41
3 503 410 561
3 235 228 230
3 233 236 235
3 367 368 512
3 442 527 535
3 201 435 598
3 285 628 284
3 520 645 460
3 207 472 613
3 143 144 142
3 640 157 156
3 219 211 379
3 175 273 271
3 156 157 164
3 47 666 470
3 327 326 325
3 242 474 241
3 613 156 164
3 6 345 10
3 636 627 575
3 269 270 251
3 572 16 198
3 518 344 654
3 184 185 294
3 76 74 548
3 606 494 216
3 433 536 655
3 563 611 524
3 152 150 140
3 48 47 52
3 294 180 293
3 663 309 353
3 345 616 83
3 51 58 52
3 644 411 503
3 542 284 464
3 535 194 442
3 128 127 99
3 68 404 407
3 237 608 239
3 396 625 397
3 546 477 227
3 322 323 333
3 549 620 569
3 591 462 479
3 341 104 106
3 579 424 37
3 573 190 189
3 153 563 661
3 34 603 604
3 330 111 9
3 293 190 573
3 307 671 286
3 106 100 589
3 296 295 573
3 494 214 217
3 628 464 284
3 190 293 614
3 164 163 162
3 363 97 98
3 259 258 472
3 139 637 137
3 336 471 525
3 662 663 68
3 133 131 69
3 348 349 367
3 664 30 24
3 523 453 59
3 13 577 331
3 292 291 290
3 646 574 441
3 615 478 602
3 322 110 323
3 453 669 59
3 244 241 428
3 102 105 364
3 76 15 413
3 364 70 363
3 62 63 64
3 639 135 137
3 479 395 591
3 172 658 478
3 133 132 131
3 603 318 604
3 416 415 488
3 408 410 409
3 496 567 503
3 667 477 546
3 39 579 37
3 128 626 102
3 141 578 592
3 197 193 196
3 581 513 40
3 442 668 459
3 263 557 236
3 301 298 299
3 442 182 301
3 307 200 305
3 264 266 265
3 164 157 158
3 113 112 107
3 590 11 12
3 323 110 511
3 49 48 53
3 646 585 502
3 243 249 532
3 102 103 105
3 129 130 344
3 261 242 243
3 452 443 374
3 114 116 115
3 443 361 370
3 551 543 608
3 337 338 339
3 10 455 83
3 270 250 251
3 39 581 40
3 304 647 578
3 565 226 228
3 171 633 624
3 672 591 668
3 50 523 57
3 159 622 162
3 195 507 649
3 435 201 208
3 148 427 146
3 498 621 11
3 359 638 631
3 171 624 204
3 391 393 392
3 333 332 331
3 445 116 117
3 329 327 328
3 196 16 507
3 590 12 13
3 247 245 444
3 306 200 505
3 237 474 260
3 188 148 147
3 278 206 205
3 613 258 257
3 292 290 564
3 653 247 444
3 415 18 642
3 547 130 670
3 389 382 383
3 602 383 559
3 522 624 358
3 273 551 469
3 393 391 560
3 435 574 605
3 325 330 328
3 586 429 300
3 380 381 389
3 593 155 627
3 545 269 430
3 57 523 59
3 495 42 43
3 401 399 400
3 506 155 553
3 657 355 357
3 451 629 318
3 7 11 61
3 362 587 544
3 392 393 379
3 644 409 410
3 291 564 509
3 594 567 84
3 64 63 61
3 358 357 356
3 60 621 525
3 338 336 318
3 492 221 376
3 82 83 87
3 93 92 124
3 525 590 490
3 41 50 46
3 41 43 42
3 410 1 625
3 426 386 384
3 568 29 567
3 151 639 169
3 301 527 442
3 587 67 533
3 252 157 640
3 75 74 72
3 273 275 271
3 545 480 610
3 630 622 636
3 164 165 613
3 540 635 509
3 8 7 6
3 26 534 417
3 278 205 276
3 172 171 281
3 105 103 104
3 649 194 195
3 160 504 159
3 107 100 101
3 219 216 215
3 575 152 151
3 358 558 447
3 11 8 9
3 189 300 298
3 114 118 117
3 199 572 198
3 134 364 342
3 350 436 360
3 403 625 131
3 672 194 462
3 296 297 298
3 182 184 296
3 110 322 324
3 356 355 358
3 79 530 518
3 206 279 280
3 256 266 264
3 574 19 572
3 390 380 388
3 475 407 5
3 363 98 364
3 614 293 180
3 209 449 484
3 269 421 270
3 10 8 6
3 665 343 401
3 509 635 291
3 434 161 166
3 66 376 377
3 20 19 21
3 391 213 390
3 451 461 629
3 266 562 156
3 212 218 220
3 402 403 91
3 494 606 479
3 655 166 433
3 215 214 223
3 664 409 644
3 32 33 35
3 218 211 219
3 663 311 309
3 153 611 563
3 607 335 334
3 486 453 523
3 262 258 259
3 556 620 4
3 66 550 62
3 550 66 465
3 112 108 107
3 155 641 153
3 235 232 233
3 314 122 316
3 343 82 87
3 661 563 580
3 22 31 54
3 636 622 611
3 182 442 184
3 271 174 175
3 155 446 627
3 477 439 528
3 563 160 158
3 371 374 370
3 249 423 224
3 143 142 150
3 241 474 237
3 569 620 667
3 317 346 539
3 114 584 516
3 335 321 319
3 202 285 209
3 332 490 13
3 624 633 656
3 425 609 162
3 347 348 346
3 49 29 47
3 575 188 600
3 69 67 70
3 189 188 155
3 665 617 566
3 36 34 32
3 570 418 422
3 104 101 106
3 86 87 83
3 414 15 17
3 61 63 554
3 298 306 299
3 172 478 438
3 233 266 236
3 137 637 639
3 280 171 206
3 153 154 155
3 640 253 430
3 107 108 100
3 236 266 254
3 298 300 306
3 181 427 180
3 664 408 409
3 460 645 343
3 108 111 330
3 139 140 282
3 99 312 128
3 220 219 223
3 95 96 98
3 390 426 560
3 387 384 386
3 294 179 180
3 644 410 411
3 559 541 519
3 250 270 570
3 419 421 467
3 664 644 659
3 550 78 79
3 200 202 201
3 565 423 473
3 460 410 520
3 394 393 591
3 543 238 608
3 430 234 545
3 135 139 136
3 548 494 479
3 544 587 353
3 286 671 288
3 420 419 418
3 367 346 348
3 0 2 1
3 114 117 116
3 162 161 434
3 653 311 247
3 204 447 203
3 89 617 90
3 581 657 513
3 431 551 583
3 300 307 305
3 455 345 83
3 108 326 100
3 668 463 647
3 299 306 191
3 418 421 420
3 524 160 563
3 244 242 241
3 360 351 350
3 618 491 526
3 44 47 116
3 414 73 76
3 37 32 35
3 476 83 514
3 597 512 487
3 335 607 517
3 152 146 145
3 575 627 446
3 538 220 483
3 280 138 139
3 180 427 614
3 88 86 84
3 40 513 656
3 47 48 49
3 164 162 165
3 379 391 392
3 353 309 310
3 418 570 421
3 15 14 507
3 399 343 645
3 404 131 625
3 425 434 536
3 486 523 495
3 432 499 602
3 245 246 244
3 275 576 178
3 232 545 234
3 612 637 280
3 516 634 114
3 224 228 235
3 592 283 141
3 106 589 340
3 313 101 626
3 651 70 362
3 102 626 103
3 107 315 113
3 588 4 3
3 74 75 77
3 155 593 641
3 228 226 227
3 13 331 332
3 649 412 462
3 616 344 582
3 81 460 343
3 108 330 325
3 333 323 607
3 536 207 609
3 595 277 177
3 20 642 18
3 543 551 431
3 204 206 171
3 338 318 339
3 353 351 660
3 211 218 212
3 247 423 249
3 146 144 143
3 402 91 90
3 444 311 653
3 131 404 68
3 532 235 243
3 209 208 202
3 499 283 578
3 173 178 169
3 431 482 454
3 286 288 285
3 638 619 631
3 604 318 33
3 672 668 442
3 541 424 579
3 136 139 137
3 470 584 47
3 303 141 468
3 433 170 169
3 1 408 0
3 509 564 652
3 390 387 386
3 441 458 646
3 397 398 410
3 478 615 466
3 128 312 626
3 310 240 552
3 269 467 421
3 580 251 564
3 659 644 567
3 13 111 109
3 56 59 618
3 41 46 45
3 149 150 152
3 519 602 559
3 153 641 611
3 438 633 172
3 84 561 460
3 390 386 426
3 196 193 192
3 493 311 663
3 114 115 47
3 661 154 153
3 92 346 317
3 7 63 596
3 630 151 622
3 501 85 130
3 155 287 553
3 151 456 575
3 652 669 540
3 351 360 660
3 447 372 482
3 377 376 221
3 187 185 647
3 61 471 66
3 2 549 485
3 448 51 47
3 223 214 377
3 262 261 263
3 52 53 48
3 526 491 418
3 371 452 374
3 253 234 430
3 567 29 30
3 52 56 55
3 416 457 670
3 398 402 90
3 554 7 61
3 534 537 417
3 219 220 218
3 197 194 535
3 362 363 651
3 13 12 11
3 533 67 663
3 353 533 663
3 550 79 654
3 379 393 394
3 187 647 303
3 387 388 389
3 57 58 50
3 61 60 471
3 468 140 142
3 417 526 418
3 618 526 56
3 54 55 22
3 480 528 648
3 417 418 419
3 271 275 173
3 46 47 44
3 634 501 118
3 130 85 582
3 661 580 564
3 422 491 652
3 635 540 669
3 228 224 225
3 507 195 196
3 220 571 210
3 329 529 514
3 181 180 179
3 541 579 39
3 505 200 572
3 110 324 577
3 23 25 24
3 639 167 169
3 570 652 564
3 426 591 393
3 583 447 482
3 445 119 116
3 636 151 630
3 473 226 565
3 435 484 458
3 71 79 78
3 15 76 14
3 479 606 394
3 86 83 616
3 290 287 289
3 220 380 212
3 542 449 209
3 320 321 597
3 59 58 57
3 367 349 366
3 121 517 607
3 487 512 368
3 495 523 50
3 665 489 343
3 159 162 163
3 312 99 497
3 177 174 280
3 316 315 314
3 489 665 566
3 119 488 44
3 469 551 608
3 483 221 492
3 25 620 664
3 633 438 466
3 664 659 30
3 229 528 480
3 514 529 476
3 259 472 207
3 24 30 22
3 177 277 176
3 433 555 536
3 572 20 18
3 548 74 77
3 302 427 186
3 72 74 76
3 495 43 488
3 575 456 636
3 564 250 570
3 404 405 407
3 618 59 669
3 465 510 508
3 417 667 26
3 241 238 240
3 543 552 238
3 120 121 123
3 35 33 318
3 596 6 7
3 572 201 598
3 646 486 495
3 503 411 410
3 107 101 315
3 510 548 77
3 185 183 668
3 343 399 401
3 37 38 39
3 140 139 135
3 38 581 39
3 380 213 212
3 549 667 226
3 512 123 367
3 394 378 379
3 316 122 110
3 28 534 26
3 185 187 186
3 181 179 186
3 552 643 310
3 329 328 330
3 290 285 288
3 29 31 22
3 430 268 640
3 319 332 333
3 669 652 491
3 641 593 611
3 447 204 522
3 77 75 78
3 339 471 337
3 432 658 599
3 213 391 379
3 470 666 516
3 68 67 69
3 436 352 354
3 444 245 244
3 383 650 668
3 529 632 10
3 581 37 35
3 495 488 646
3 274 576 275
3 214 531 377
3 539 346 367
3 269 252 268
3 473 662 475
3 560 391 390
3 494 548 510
3 320 597 318
3 481 25 26
3 310 643 354
3 251 252 269
3 272 175 276
3 466 615 602
3 507 14 412
3 235 236 557
3 30 29 22
3 314 315 101
3 566 617 589
3 640 156 562
3 329 632 529
3 66 64 65
3 96 347 346
3 319 336 525
3 159 504 622
3 552 500 370
3 80 85 634
3 410 460 561
3 513 657 656
3 418 491 422
3 407 662 68
3 412 479 462
3 278 175 176
3 449 486 458
3 417 419 528
3 427 302 146
3 408 588 3
3 437 274 469
3 377 531 510
3 566 100 327
3 612 174 637
3 68 663 67
3 516 666 567
3 349 443 452
3 504 611 622
3 99 127 98
3 258 262 263
3 258 263 256
3 515 534 28
3 13 490 590
3 100 326 327
3 89 341 340
3 232 231 229
3 444 241 308
3 3 549 0
3 78 75 71
3 497 99 126
3 30 659 567
3 368 461 487
3 583 482 431
3 318 336 319
3 200 201 572
3 52 47 51
3 318 483 339
3 607 511 110
3 410 396 397
3 516 594 80
3 308 241 310
3 110 109 111
3 408 1 410
3 416 670 530
3 564 290 661
3 634 118 114
3 163 158 159
3 195 194 197
3 345 455 10
3 512 597 517
3 54 31 53
3 437 608 237
3 608 437 469
3 394 216 219
3 39 40 466
3 367 123 539
3 620 25 481
3 241 240 310
3 18 17 16
3 176 175 177
3 382 424 541
3 467 648 419
3 603 483 318
3 361 362 360
3 435 458 441
3 399 617 400
3 27 23 28
3 89 91 132
3 524 611 504
3 89 132 342
3 416 79 71
3 609 425 536
3 333 334 335
3 264 265 256
3 381 571 34
3 654 596 63
3 89 589 617
3 416 445 117
3 578 463 650
3 138 637 139
3 137 135 136
3 625 405 404
3 285 200 286
3 668 384 383
3 384 387 389
3 206 204 205
3 668 591 426
3 303 647 304
3 213 380 390
3 562 253 640
3 541 602 519
3 361 348 347
3 510 78 508
3 83 476 10
3 288 671 586
3 457 117 118
3 415 414 18
3 169 178 555
3 44 45 46
3 602 541 466
3 610 480 467
3 176 206 278
3 625 396 410
3 384 668 426
3 22 23 24
3 167 639 173
3 607 334 333
3 447 522 358
3 84 496 503
3 506 586 189
3 117 457 416
3 440 537 515
3 670 344 518
3 573 295 293
3 310 354 353
3 94 92 96
3 567 594 516
3 271 173 174
3 33 34 604
3 281 171 280
3 53 31 49
3 314 101 313
3 256 265 613
3 632 329 10
3 229 545 232
3 101 100 106
3 395 479 394
3 223 219 215
3 266 234 267
3 502 642 646
3 3 4 549
3 169 555 433
3 289 287 155
3 415 502 585
3 481 26 667
3 460 81 84
3 473 423 662
3 211 213 379
3 90 91 89
3 433 151 170
3 299 192 193
3 256 257 258
3 230 229 235
3 146 600 147
3 388 380 389
3 647 185 668
3 358 624 601
3 352 436 350
3 207 536 555
3 28 26 27
3 34 571 483
3 318 629 35
3 552 354 643
3 296 298 301
3 288 506 287
3 290 289 661
3 70 364 134
3 243 557 263
3 475 5 473
3 122 313 497
3 423 247 248
3 577 324 322
3 33 32 34
3 366 355 657
3 85 80 84
3 310 309 308
3 210 571 381
3 580 252 251
3 442 194 672
3 64 61 65
3 646 642 21
3 17 18 414
3 383 384 385
3 590 525 498
3 485 549 473
3 403 402 398
3 196 198 16
3 483 603 34
3 186 427 181
3 140 151 152
3 628 285 290
3 478 658 432
3 157 252 580
3 105 342 364
3 207 623 259
3 543 454 371
3 499 432 283
3 24 25 664
3 308 309 311
3 452 371 373
3 466 438 478
3 578 647 463
3 98 92 99
3 608 241 239
3 514 327 329
3 552 370 369
3 473 5 485
3 84 86 85
3 360 436 369
3 207 555 623
3 279 206 277
3 378 394 219
3 205 203 276
3 622 151 433
3 143 149 145
3 135 151 140
3 398 520 410
3 354 552 436
3 471 60 525
3 403 398 397
3 514 82 343
3 661 289 154
3 553 287 506
3 342 105 104
3 203 205 204
3 132 133 134
3 399 398 90
3 344 670 129
3 296 184 294
3 609 207 613
3 43 45 44
3 568 567 666
3 323 511 607
3 638 373 619
3 382 381 424
3 369 370 361
3 122 124 121
3 50 42 495
3 356 357 355
3 528 439 417
3 36 424 381
3 456 151 636
3 256 254 255
3 444 428 241
3 613 257 256
3 280 174 612
3 564 291 292
3 605 574 572
3 242 244 243
3 464 453 542
3 0 408 3
3 173 639 174
3 514 83 82
3 272 273 175
3 75 72 73
3 71 73 416
3 225 565 228
3 468 302 303
3 9 13 11
3 617 665 401
3 243 244 249
3 29 666 47
3 276 175 278
3 593 627 611
3 142 140 150
3 65 61 66
3 296 294 295
3 357 358 656
3 53 55 54
3 597 321 335
3 389 383 385
3 47 115 116
3 110 577 13
3 669 464 635
3 591 395 394
3 365 363 362
3 233 234 266
3 325 326 108
3 344 616 345
3 124 122 93
3 383 602 499
3 539 124 317
3 10 476 529
3 465 66 377
3 98 97 95
3 488 43 44
3 642 502 415
3 238 552 240
3 369 436 552
3 301 182 296
3 166 161 622
3 208 201 202
3 613 265 156
3 246 247 249
3 69 131 68
3 536 434 655
3 227 477 230
3 480 648 467
3 432 602 478
3 482 371 454
3 214 494 531
3 126 122 497
3 146 302 142
3 600 146 575
3 189 298 573
3 472 258 613
3 452 638 349
3 550 63 62
3 363 95 97
3 276 551 273
3 498 525 621
3 508 78 550
3 152 145 149
3 453 486 449
3 405 1 2
3 162 609 613
3 172 281 599
3 640 268 252
3 37 36 32
3 500 552 543
3 313 122 314
3 62 64 66
3 668 650 463
3 5 2 485
3 192 198 196
3 517 597 335
3 370 500 371
3 169 170 151
3 156 265 266
3 379 378 219
3 260 262 259
3 531 494 510
3 47 46 448
3 532 224 235
3 471 483 492
3 282 281 280
3 158 163 164
3 343 489 514
3 446 188 575
3 27 25 23
3 10 329 330
3 537 534 515
3 11 7 8
3 414 413 15
3 132 91 403
3 565 224 423
3 588 408 664
3 581 38 37
3 276 273 272
3 1 405 406
3 458 484 449
3 14 76 412
3 577 322 333
3 189 586 300
3 92 94 346
3 186 179 185
3 364 127 102
3 583 551 203
3 90 617 399
3 306 572 191
3 488 445 416
3 466 40 633
3 146 142 144
3 102 127 128
3 96 95 361
3 282 140 283
3 186 187 303
3 67 587 70
3 462 591 672
3 6 344 345
3 273 274 275
3 349 355 366
3 254 263 236
3 380 220 381
3 71 75 73
3 516 584 470
3 400 617 401
3 158 580 563
3 370 374 443
3 98 96 92
3 637 138 280
3 46 51 448
3 429 307 300
3 52 58 56
