ply
format ascii 1.0
comment https://github.com/mikedh/trimesh
element vertex 755
property float x
property float y
property float z
element face 1506
property list uchar int vertex_indices
end_header
59.01599884 216.58299255 211.41799927
56.66799927 216.23300171 204.30200195
81.34200287 266.38198853 194.62600708
76.08799744 264.05899048 190.08599854
67.12599945 251.53100586 187.56199646
51.24100113 220.22099304 185.29299927
51.93600082 226.97099304 177.05099487
50.41400146 223.71099854 173.65400696
43.41799927 180.22300720 126.54599762
38.44200134 199.36199951 124.15599823
54.00999832 231.69799805 186.61099243
53.11999893 226.62600708 188.59599304
56.08100128 235.24800110 189.34300232
55.21699905 232.70100403 190.70899963
55.04100037 228.94700623 193.08299255
56.40800095 232.87199402 195.69599915
57.88199997 142.39799500 146.50300598
61.28400040 134.41600037 146.60499573
47.50099945 181.08399963 70.49299622
44.02700043 183.60200500 75.53399658
43.42599869 186.85099792 80.76699829
45.54600143 220.62199402 82.83300018
45.30799866 219.59100342 85.47599792
45.46599960 217.98199463 89.57599640
60.75999832 241.64799500 92.14199829
59.68999863 241.06700134 98.58999634
74.69200134 264.43600464 115.70200348
72.91100311 264.76800537 122.25900269
68.56900024 259.04098511 120.43900299
64.19300079 257.26901245 128.59700012
65.71600342 258.93798828 128.75300598
67.26999664 260.59298706 128.93800354
85.69499969 273.23599243 139.58700562
81.97899628 272.23498535 137.21499634
82.99900055 273.18301392 144.22300720
78.27300262 270.13299561 149.09100342
65.62999725 253.94200134 111.41400146
64.22200012 251.80400085 111.33699799
73.36199951 252.70899963 100.44300079
77.20800018 253.31500244 98.85299683
53.61199951 230.59300232 98.87200165
55.50299835 234.53199768 92.92199707
52.75699997 230.83999634 90.76000214
40.96599960 210.46699524 83.83699799
38.80899811 205.85800171 83.12200165
39.82300186 208.33599854 80.96299744
39.03099823 205.93099976 76.47200012
41.00999832 197.90699768 77.72599792
165.95799255 166.64500427 32.90900040
171.82400513 169.56199646 33.80899811
169.63000488 168.38800049 33.20600128
175.85699463 167.11099243 37.68799973
168.25599670 143.17700195 36.75799942
182.24400330 139.52099609 41.59500122
177.59899902 124.19799805 39.83900070
177.00399780 124.38300323 37.35200119
173.10899353 123.99299622 38.59199905
173.53700256 122.75099945 39.20999908
170.49200439 123.04799652 39.59400177
80.66100311 176.34199524 25.29400063
77.68900299 172.85200500 26.54899979
80.97799683 171.82000732 24.62599945
83.45400238 161.84100342 29.67399979
86.05400085 168.56199646 21.59700012
87.55000305 163.73899841 20.65800095
88.83599854 163.31199646 20.22200012
92.47499847 171.66000366 21.06999969
87.23200226 173.68499756 22.22599983
89.71700287 177.77799988 23.49099922
86.90899658 184.48199463 27.56699944
197.63400269 216.26300049 57.16600037
198.83599854 223.06100464 57.32699966
202.95399475 223.20199585 60.42399979
198.23500061 228.72500610 60.11500168
202.70899963 228.92500305 62.74800110
222.63400269 222.24299622 73.57700348
221.71200562 221.85899353 71.54699707
220.77999878 221.43299866 69.50199890
219.63000488 214.08700562 68.02400208
214.44599915 212.90899658 65.15000153
191.75100708 225.48399353 54.67699814
187.18600464 226.61099243 52.83800125
186.39799500 219.86399841 51.36100006
160.48800659 212.04899597 41.68099976
135.21400452 208.49299622 24.15099907
130.39799500 201.34700012 23.47999954
129.46499634 203.71299744 23.16500092
123.55599976 198.06399536 21.87500000
120.66400146 198.60600281 20.93199921
128.58200073 231.58200073 24.36300087
132.19299316 237.53999329 24.38699913
134.09399414 238.00199890 27.04500008
130.54100037 244.08700562 31.82399940
141.74899292 235.38800049 32.00000000
126.54599762 242.97900391 28.85400009
126.13600159 245.98300171 32.26900101
124.02300262 236.41799927 26.68700027
123.30799866 237.44500732 27.16099930
120.77200317 232.81399536 26.44400024
118.47699738 228.37500000 27.52199936
127.86900330 270.69400024 111.30000305
130.94099426 272.73498535 116.53600311
134.93499756 272.21398926 113.64399719
138.14999390 274.30200195 119.67900085
139.07200623 274.84698486 123.13899994
206.20399475 126.17600250 80.13999939
221.78700256 138.69099426 79.24400330
219.45300293 141.12699890 75.62100220
90.81700134 246.86900330 66.45899963
86.64099884 245.21400452 64.36299896
89.08999634 245.91000366 62.86700058
92.58300018 246.11999512 60.16099930
88.83799744 245.03199768 57.56100082
73.00900269 235.56599426 43.90399933
75.59600067 235.49699402 42.92100143
76.84799957 232.21200562 41.47200012
75.93800354 230.16000366 41.74499893
75.00499725 228.09599304 42.04800034
87.22799683 238.08999634 40.64199829
82.89099884 238.28599548 42.25099945
80.54000092 239.56199646 43.78300095
79.35700226 236.33500671 41.96099854
80.25800323 239.67799377 48.58000183
67.56199646 177.74499512 246.65899658
86.53600311 153.55999756 285.45199585
79.90100098 150.79499817 284.30300903
75.28500366 147.94599915 282.04998779
75.91999817 141.67700195 281.71899414
79.24199677 140.03700256 283.09698486
82.11100006 138.97099304 282.85900879
79.68699646 136.19500732 281.87600708
77.91899872 136.36999512 280.47601318
76.12999725 136.59100342 279.07199097
75.08200073 141.10299683 276.85299683
75.28600311 136.86599731 275.14700317
75.45400238 156.66000366 273.75500488
75.55400085 159.21899414 271.55200195
67.83200073 109.56999969 198.54100037
64.43900299 115.55500031 195.89799500
59.37599945 119.77700043 188.39799500
167.88699341 299.31698608 235.31199646
169.04499817 306.08401489 229.23599243
169.07000732 306.16400146 231.79499817
166.67100525 307.68600464 230.52799988
165.19999695 307.97000122 230.28199768
161.69700623 308.72601318 232.05499268
154.53399658 308.84698486 228.19000244
150.63000488 306.20599365 221.66700745
139.71400452 307.58300781 225.48100281
142.17199707 309.19699097 230.70899963
144.29499817 309.60699463 229.33700562
144.72500610 308.67300415 232.34500122
145.35200500 307.73699951 233.36300659
147.70300293 305.40899658 235.46200562
166.26199341 304.07699585 219.33399963
166.83500671 303.27099609 216.97200012
169.18800354 303.10800171 219.07899475
170.32200623 302.28601074 219.66400146
178.99299622 296.04299927 232.26199341
180.02999878 291.85501099 233.13900757
179.31399536 287.60501099 234.47999573
149.51300049 213.42300415 273.00698853
148.52699280 204.75700378 276.22698975
83.03399658 195.49400330 278.30899048
80.55100250 196.03599548 276.53698730
88.60399628 200.22099304 281.20498657
86.69699860 200.32200623 279.48599243
89.04799652 202.41299438 279.07400513
90.41300201 202.89100647 279.50000000
90.80500031 202.19900513 280.70901489
93.28399658 203.88099670 279.67700195
93.82399750 201.17500305 282.69699097
78.64800262 103.55300140 114.71399689
77.04699707 104.70099640 118.48300171
75.18900299 106.06600189 120.35600281
73.90000153 107.77300262 116.33599854
142.30900574 105.41000366 53.08300018
147.10800171 99.75399780 60.69800186
147.72500610 98.29399872 66.17700195
132.68400574 94.74099731 63.25099945
83.94400024 128.51699829 45.95899963
84.34799957 126.40399933 47.35100174
90.28199768 125.91899872 41.27099991
96.52200317 122.24099731 41.04800034
102.47599792 121.91400146 41.10300064
100.11100006 114.10500336 49.43999863
104.65599823 109.34799957 53.42699814
104.42500305 113.77700043 48.45100021
93.90499878 99.75000000 66.73600006
88.79499817 103.68299866 68.63800049
86.88600159 108.57499695 67.57900238
86.77400208 114.44999695 61.39599991
76.52200317 115.83100128 95.69899750
79.74099731 107.51399994 95.25700378
83.70200348 103.17299652 95.43800354
100.95300293 83.02600098 129.33099365
102.91000366 82.35600281 126.07800293
82.59100342 129.57200623 50.46099854
194.23399353 254.37899780 81.48699951
40.04600143 177.61399841 174.79299927
38.82400131 179.40299988 172.66299438
37.90100098 187.10899353 180.44400024
39.04199982 192.52099609 175.88699341
37.09700012 183.44400024 180.54600525
100.67900085 91.24500275 92.60900116
121.87200165 68.35199738 134.33200073
136.72000122 164.19599915 24.41200066
172.38400269 270.55599976 104.86299896
206.13699341 270.07101440 123.61599731
215.69099426 264.98999023 123.52400208
219.03100586 263.92498779 116.27200317
218.05200195 263.84500122 114.30899811
209.91299438 258.13198853 101.18499756
207.58700562 267.58401489 105.17800140
200.45599365 274.13500977 111.56199646
192.13999939 274.34100342 110.41899872
181.00300598 270.16900635 100.38300323
195.79200745 248.26400757 76.96499634
224.93400574 198.44500732 77.77600098
42.19599915 203.04600525 65.88800049
40.71400070 206.90299988 68.02100372
40.45399857 207.99299622 69.04499817
40.93999863 209.32099915 68.58200073
60.61000061 154.23800659 82.40699768
72.97399902 151.43200684 56.49100113
63.77500153 242.39300537 218.33399963
64.03800201 246.84300232 219.21899414
64.72899628 245.06799316 221.33900452
69.28700256 251.47999573 219.23300171
69.32900238 251.41099548 221.72900391
91.08499908 248.26699829 235.04600525
91.35099792 246.72900391 236.84100342
172.86500549 113.35299683 61.54299927
173.28700256 110.35900116 66.97699738
181.58000183 97.39399719 90.04000092
186.84199524 100.79399872 92.60700226
180.70599365 111.13800049 74.85900116
224.82800293 233.69700623 93.41300201
64.57399750 249.50999451 177.41400146
63.77199936 248.48300171 178.15299988
62.04399872 247.53900146 169.13000488
62.04700089 247.32200623 170.52900696
63.46400070 250.46800232 164.70700073
59.65399933 244.36599731 165.18800354
115.36100006 100.22000122 58.11000061
115.82900238 101.95099640 56.36399841
120.61299896 102.23400116 54.45899963
118.80699921 95.18399811 62.54999924
124.25700378 93.07099915 64.80699921
121.63099670 92.24299622 66.49500275
119.36299896 125.17299652 41.81600189
65.28299713 132.35499573 131.84399414
166.11900330 117.18800354 298.34698486
166.68600464 121.96700287 299.16299438
76.60099792 87.45099640 192.99499512
75.07199860 86.97899628 197.14900208
76.79799652 85.77600098 205.66400146
168.03100586 31.27799988 163.42799377
164.68200684 27.85099983 166.81500244
159.90699768 18.83799934 176.50300598
161.53100586 17.78000069 177.52600098
170.10899353 16.77899933 179.52999878
166.78599548 14.23299980 186.14100647
176.34899902 13.71399975 186.92199707
174.47700500 12.72500038 187.49899292
185.62899780 15.22599983 197.04400635
188.86000061 15.24199963 201.75999451
189.75399780 15.68999958 201.04499817
58.02500153 150.75900269 203.04400635
58.36899948 151.02600098 204.46499634
34.88700104 187.83799744 149.33799744
32.63399887 192.65299988 154.20599365
38.22399902 176.34899902 150.25199890
40.30899811 175.57600403 138.61599731
42.56900024 168.60699463 141.74400330
40.00299835 169.35899353 150.60400391
34.13199997 182.61099243 157.88800049
35.75699997 190.89399719 165.44200134
40.59099960 215.67199707 147.30599976
40.98799896 216.98500061 147.88600159
104.30599976 271.93499756 124.37100220
135.98199463 258.47399902 76.66899872
80.23200226 94.66500092 148.23300171
86.78700256 85.87599945 159.45399475
82.69599915 91.12799835 160.84300232
48.86399841 185.66499329 204.52799988
50.66799927 174.23199463 202.13600159
72.59200287 119.86100006 239.82200623
68.24900055 123.91799927 237.66799927
64.42199707 135.22399902 232.93899536
65.52799988 135.01300049 235.96600342
184.45500183 281.07199097 162.10200500
185.65600586 281.03298950 162.97900391
180.79800415 283.53298950 170.14900208
193.76899719 23.12199974 177.25900269
191.75000000 22.71699905 175.83999634
188.72999573 24.27799988 170.77799988
187.07299805 25.55400085 168.49899292
187.31399536 21.03700066 176.40899658
133.89199829 33.25899887 243.45700073
137.95899963 32.59500122 248.87500000
141.58200073 35.87799835 253.82400513
131.05799866 34.13299942 259.48400879
122.89199829 40.16500092 258.94299316
122.11399841 43.02700043 261.20300293
123.28700256 44.93600082 261.54000854
177.88699341 16.52899933 216.59100342
177.90100098 18.20400047 218.11900330
177.90199280 19.92000008 219.62800598
175.42100525 12.51799965 214.07699585
277.64300537 109.12999725 212.38600159
279.26800537 112.85600281 214.41900635
283.47500610 115.40599823 213.31799316
284.77398682 114.38600159 209.66900635
286.42098999 120.93900299 213.40100098
278.66000366 101.97399902 202.52999878
217.34100342 94.29199982 270.88198853
226.29499817 98.63300323 268.86499023
228.35699463 96.14600372 264.85998535
173.68600464 69.80000305 273.44000244
179.67500305 73.54499817 275.71899414
189.71099854 65.40799713 271.35400391
198.44099426 70.89099884 268.70098877
200.85899353 70.87699890 265.32800293
200.89399719 69.44499969 263.58300781
200.89900208 68.01699829 261.79699707
243.91200256 51.58800125 213.11399841
224.54899597 47.51599884 217.81100464
154.71800232 50.85100174 266.32000732
294.86599731 230.02799988 190.10400391
294.04598999 229.06700134 184.42500305
292.37799072 238.36399841 184.11700439
290.92898560 235.61000061 180.43699646
285.28100586 243.81900024 182.74000549
281.20599365 250.00599670 190.43299866
285.65301514 249.12600708 189.72200012
288.20498657 247.48399353 189.25500488
288.15798950 248.72300720 192.88600159
286.41101074 248.64300537 194.33200073
284.61499023 248.56199646 195.75100708
290.27899170 241.71699524 195.43800354
290.42898560 240.20300293 200.49000549
285.46398926 242.51199341 202.88200378
304.97799683 208.98300171 199.03300476
305.23901367 208.27200317 196.89900208
305.45700073 207.54699707 194.74299622
139.18200684 28.35499954 169.76300049
130.11000061 19.56100082 192.75399780
127.76100159 23.02799988 191.33299255
128.66200256 19.27799988 181.53999329
127.63700104 17.96699905 183.48899841
132.41600037 17.21500015 182.80799866
132.62300110 16.70100021 184.22599792
133.65100098 16.10600090 186.80999756
137.38499451 15.95699978 188.30799866
139.64300537 16.07200050 189.51300049
139.32299805 16.50300026 181.58599854
130.35000610 22.34799957 178.95700073
253.38999939 155.40499878 274.12399292
248.19599915 155.48399353 279.61499023
246.50399780 156.02400208 281.19601440
252.05599976 161.09700012 276.48300171
252.60000610 162.18899536 275.97698975
250.64100647 195.87399292 272.20199585
293.79699707 182.67500305 247.63600159
204.65499878 47.05199814 229.37899780
207.60899353 59.94400024 243.11399841
208.96499634 60.35300064 242.64799500
234.23699951 65.21399689 225.13600159
186.76600647 103.95999908 298.51800537
187.00700378 100.25499725 295.84899902
192.38800049 105.39900208 298.41799927
190.53999329 104.17199707 298.76699829
191.66400146 114.05300140 300.98599243
184.72599792 118.34100342 302.03601074
183.69299316 113.13600159 302.25900269
182.71099854 111.78299713 301.61898804
182.62600708 125.23200226 302.23901367
182.64599609 129.58900452 299.30599976
215.48599243 113.38600159 286.73001099
209.02000427 109.50399780 289.75100708
198.77799988 117.72899628 299.81698608
197.48599243 121.81900024 299.80398560
198.02400208 124.15299988 299.07199097
195.14500427 111.96600342 299.42401123
205.68899536 116.66400146 297.49301147
302.45599365 151.23500061 183.75799561
302.95498657 151.86199951 181.60800171
266.24798584 197.64599609 122.79499817
265.53100586 199.70599365 123.05200195
269.95498657 202.02299500 131.75100708
227.39300537 157.48199463 285.17401123
227.03199768 168.82400513 282.72900391
229.50500488 173.08799744 281.78298950
221.76899719 175.22999573 279.73498535
260.41101074 219.51499939 136.67900085
271.72399902 239.75500488 161.33299255
275.65100098 234.71299744 159.07000732
270.88000488 235.61199951 155.00700378
284.65798950 230.13999939 162.98899841
285.23001099 228.76899719 163.10499573
291.65499878 215.80999756 170.00399780
307.04501343 192.30999756 187.34199524
308.63299561 193.74299622 193.22700500
306.09600830 183.61300659 190.82000732
305.47198486 184.88499451 198.03700256
245.85400391 142.72599792 278.02398682
245.20199585 140.59599304 276.87500000
252.86300659 147.71400452 270.68399048
293.52999878 141.52000427 118.77899933
294.23800659 143.41099548 117.92700195
297.10800171 146.88299561 122.59700012
298.13699341 154.46800232 126.72499847
289.78900146 158.74299622 117.82499695
291.01699829 165.01199341 126.72799683
264.94799805 219.98300171 262.73901367
264.42001343 221.26499939 262.38000488
266.43499756 219.93200684 262.39999390
288.99398804 221.66799927 237.23100281
287.75100708 223.53100586 237.07899475
271.53298950 229.78900146 244.19400024
269.44699097 230.36799622 244.94999695
296.90600586 209.31599426 229.62399292
300.35598755 195.85000610 233.64900208
296.62500000 208.30700684 244.37100220
294.69699097 205.66499329 250.38299561
292.17401123 207.84199524 250.00399780
297.16101074 199.63099670 248.37899780
297.64801025 201.44099426 247.14599609
301.16198730 192.53399658 237.72799683
298.42700195 186.99600220 246.15100098
291.05200195 193.82400513 257.26300049
288.42800903 190.97000122 259.17700195
287.15200806 196.62800598 262.01300049
285.36599731 188.44799805 259.57901001
284.50500488 184.88499451 258.44100952
279.56298828 217.56900024 252.11799622
278.98199463 211.99899292 261.12899780
277.60900879 210.46400452 262.13900757
277.50900269 201.74099731 264.68701172
276.48901367 199.62800598 265.10198975
266.92401123 207.11700439 264.79699707
265.27200317 224.86500549 260.65798950
266.52398682 227.39100647 259.42800903
275.26699829 140.88299561 243.45799255
154.85099792 47.63600159 144.83299255
154.63699341 48.42800140 143.59300232
163.89199829 42.84099960 150.83700562
192.38400269 37.82400131 159.46000671
194.26699829 35.64500046 162.20599365
199.00399780 39.15999985 163.80099487
176.03399658 56.16799927 266.09399414
181.40600586 64.14199829 270.47000122
271.50399780 77.97799683 175.41000366
270.78399658 75.00599670 173.47500610
270.56399536 74.68000031 174.64199829
300.82101440 119.54900360 145.26199341
300.42898560 123.04900360 139.73599243
302.26998901 157.59700012 141.23699951
288.85998535 125.93000031 128.08599854
287.86599731 124.73799896 129.00700378
284.43301392 130.27299500 121.27899933
292.63101196 131.18699646 125.34300232
297.40600586 133.67199707 126.40899658
295.90701294 134.21499634 124.90200043
302.95800781 142.61999512 127.26499939
301.19000244 148.64399719 127.79000092
301.68301392 129.83900452 134.41400146
294.70800781 120.30500031 136.91299438
294.92599487 118.67900085 138.36799622
310.98901367 131.98899841 155.83599854
311.45599365 134.05799866 156.40199280
308.64801025 127.69499969 151.91200256
313.86599731 139.05499268 149.47999573
313.54800415 132.13000488 142.34599304
314.71899414 131.39300537 146.77000427
315.04800415 134.56399536 140.70500183
315.07501221 138.76100159 136.92500305
314.81698608 134.82699585 138.62399292
248.74200439 57.32400131 195.10899353
237.10200500 46.84899902 194.32699585
231.61799622 43.55300140 201.43400574
231.00700378 43.12699890 202.76199341
173.11500549 154.18600464 288.76199341
171.27900696 152.72999573 289.18099976
65.78095245 183.62120056 40.52796173
207.64418030 215.21965027 264.30685425
211.60818481 256.13934326 241.37461853
149.81105042 291.05819702 186.68077087
204.93917847 101.05683136 284.63613892
101.19411469 70.67410278 235.51155090
73.19422150 116.28370667 106.61602783
124.94927979 57.74036026 149.61070251
49.72649002 150.84486389 169.75233459
129.32516479 79.41887665 100.84400177
268.95623779 165.50122070 105.95225525
307.02301025 156.94358826 162.25181580
40.81232071 174.31715393 168.00862122
296.07095337 172.84150696 144.96176147
240.21838379 52.22300339 190.56347656
297.44558716 152.57211304 202.18716431
92.43616486 241.09654236 43.20615005
244.28533936 126.34664917 263.47177124
204.72158813 65.18569946 142.50035095
142.45825195 269.59854126 107.75495148
215.95478821 125.47460938 291.24288940
261.42904663 135.15844727 106.11361694
263.91705322 256.00164795 203.58514404
136.90243530 30.01267242 225.67568970
73.36541748 229.84730530 241.41302490
268.81719971 87.08479309 198.46795654
151.35093689 166.33081055 284.94256592
177.97407532 45.76858521 246.50146484
97.28022766 61.46159744 197.82331848
127.49780273 288.62371826 188.57594299
141.51913452 116.03691101 287.61386108
225.05705261 44.32064819 186.81343079
213.09922791 211.45491028 265.03979492
212.58576965 205.10017395 266.63134766
258.13424683 243.08747864 147.28419495
97.74300385 165.27738953 282.15914917
95.33230591 184.07597351 24.88873672
67.15155029 243.42359924 89.85250092
171.38284302 99.51682281 289.60910034
244.58157349 97.01798248 239.52865601
240.40510559 146.12966919 281.89389038
220.66174316 111.50807190 106.82746124
298.24581909 212.13134766 216.98107910
204.56735229 234.60473633 71.87577820
107.67346191 57.90233612 239.26280212
112.78326416 257.15762329 85.46671295
115.61045837 266.46606445 234.59481812
149.14916992 293.61581421 238.38822937
224.50772095 259.45565796 121.71942902
150.00222778 183.73175049 28.51186180
232.65361023 203.70512390 268.82437134
263.37857056 158.95436096 264.94662476
192.47163391 132.71089172 55.21936035
232.89189148 228.36732483 256.97979736
74.24160767 225.31832886 243.90328979
184.40066528 58.01798248 260.93298340
95.58882904 273.72805786 174.36933899
35.49840546 186.49365234 169.76467896
225.48890686 78.88075256 143.71629333
119.20674133 290.29919434 222.17169189
95.51111603 71.03659058 168.94198608
154.91996765 207.21908569 273.11291504
54.44313812 140.07113647 183.59858704
143.72152710 122.75228119 292.11843872
209.27613831 279.94409180 219.16979980
136.83747864 209.15174866 273.60604858
279.87792969 222.38471985 156.23724365
159.76408386 300.90191650 212.58065796
190.58569336 124.30165100 67.40106964
147.45141602 173.94010925 282.54281616
64.48445129 118.26536560 172.05480957
175.24061584 23.43444633 223.10797119
191.27476501 57.18891525 141.61151123
294.59490967 205.44206238 167.70228577
40.69041061 197.74461365 102.98915863
287.24398804 203.22731018 149.22152710
147.25411987 61.80487823 121.65654755
51.01132202 164.93183899 114.65045166
70.86360168 133.16601562 92.01587677
132.56666565 74.08580780 270.11276245
174.68070984 97.81916046 84.44901276
104.31581879 58.28982162 216.50802612
108.40586090 277.87377930 162.76242065
113.50416565 131.57144165 286.34286499
298.66928101 155.71023560 203.13520813
277.27066040 178.76861572 121.35894775
100.33593750 94.08006287 84.86698914
213.54728699 170.90376282 70.36486053
72.67650604 145.99960327 261.26437378
158.07762146 268.30841064 247.45381165
212.88726807 157.26138306 284.61035156
216.29371643 217.14134216 263.23464966
155.76194763 21.86805153 220.11532593
218.40016174 272.45446777 211.23811340
165.07804871 291.05014038 193.70538330
75.69468689 102.59492493 152.68893433
78.22969818 181.90185547 29.11024857
127.02537537 138.79722595 36.56727600
264.79470825 147.94477844 103.91603851
171.35345459 283.38867188 168.11488342
133.55633545 259.19351196 246.73341370
87.50503540 94.51950836 129.39201355
90.59251404 269.88464355 201.88046265
99.84578705 262.54879761 105.58672333
71.04925537 127.92500305 103.20307922
161.27807617 111.20253754 291.86383057
107.43899536 78.03826904 268.88699341
48.50432205 225.75469971 155.92224121
127.42763519 176.36349487 284.85098267
69.15012360 231.24726868 235.84483337
239.40631104 236.45587158 250.15087891
206.78581238 149.08557129 65.15574646
56.25254440 158.85926819 102.48247528
70.96508026 213.99516296 242.08183289
270.75296021 246.95938110 210.44804382
174.08148193 273.08023071 120.33537292
140.41481018 41.08956528 157.16938782
291.16204834 111.22068787 146.87727356
212.33813477 276.19116211 224.54110718
238.44757080 213.98143005 93.14141083
229.10220337 43.56582642 190.54582214
296.64001465 113.00717163 154.06304932
136.90698242 73.95826721 271.20217896
141.98342896 251.52578735 252.06533813
101.24074554 54.51812744 196.05062866
152.98741150 16.28330612 190.60432434
241.46154785 75.13875580 224.86065674
161.30992126 276.29284668 137.75778198
150.29841614 132.16270447 291.85641479
167.10151672 15.62751865 211.24334717
112.53704834 42.76259232 189.11405945
300.50302124 174.01071167 156.41433716
188.67372131 279.06585693 153.59339905
198.25723267 52.07420731 241.08018494
181.18313599 267.25717163 239.95973206
82.38635254 204.86361694 35.08023453
197.23440552 273.82861328 126.21925354
67.38530731 157.72244263 243.31887817
107.27894592 268.45898438 115.34795380
136.19892883 278.95822144 153.68907166
246.94674683 81.44805908 155.42008972
237.17959595 100.62900543 129.90933228
116.40232849 285.54568481 189.47665405
241.55859375 179.98316956 277.12670898
212.25842285 100.36391449 115.01814270
167.99513245 71.88896942 119.75109863
168.91110229 267.91738892 99.10464478
186.78123474 246.88262939 73.53602600
259.84802246 134.35414124 105.73178864
175.01499939 288.65029907 191.41262817
174.18821716 222.81521606 262.53448486
68.04150391 116.45332336 158.08956909
149.80345154 241.09686279 44.76615143
56.32534790 240.38259888 153.66186523
259.41577148 101.88645172 223.51264954
192.41287231 52.59327316 145.58543396
284.20111084 107.48284149 189.36486816
227.94041443 84.22450256 246.95951843
92.09204865 74.12557220 219.12321472
73.66065216 204.08175659 251.81387329
74.07376099 137.72804260 264.07809448
200.71133423 32.42114258 211.69154358
288.01989746 101.41577911 165.03193665
257.25332642 142.14497375 100.36727142
151.77865601 151.27674866 30.82190132
114.21782684 261.37753296 236.48077393
132.94064331 146.82688904 287.08856201
144.81607056 71.62298584 273.13705444
280.90603638 183.28862000 130.71566772
149.30189514 21.09180260 215.48748779
267.25027466 106.70684052 139.56442261
100.29292297 259.80200195 231.04969788
272.29092407 105.17625427 144.25494385
153.68486023 36.42221069 159.24349976
131.34846497 281.69271851 235.09515381
221.68080139 262.31457520 175.82931519
85.92565155 185.41667175 280.18365479
51.07632065 225.68240356 120.22681427
242.12783813 109.46138763 119.76547241
132.97837830 273.07675171 117.19879150
197.03256226 79.55284882 123.54061890
275.32095337 128.89622498 119.65521240
152.19764709 249.08184814 65.39156342
256.60031128 119.02499390 244.48847961
233.42727661 256.63610840 161.05377197
106.95295715 57.00051498 226.36029053
245.44816589 257.45294189 215.75886536
38.94186401 205.86734009 140.65818787
268.42947388 91.49231720 203.64324951
86.27932739 78.97194672 187.71463013
233.96981812 231.46072388 111.24282074
238.18153381 115.34759521 110.66224670
113.74306488 218.31954956 266.00167847
72.38282776 261.30322266 163.60647583
135.03553772 132.06101990 291.60604858
46.84162140 180.52084351 106.46187592
123.16785431 41.85788727 248.25636292
186.93937683 184.76910400 45.69731522
132.55674744 83.23878479 82.59197235
118.15745544 258.05889893 85.90612793
150.75955200 63.71115112 120.54544067
72.12050629 145.78500366 65.98120880
218.56886292 91.70737457 126.89411163
279.34356689 120.27060699 220.34326172
46.59708786 218.98129272 118.38025665
163.54948425 145.65252686 289.73400879
60.97996521 183.43463135 228.53334045
55.80881500 212.11163330 57.03651047
291.90530396 236.86143494 198.05506897
171.68778992 179.64543152 37.43790436
103.03929138 264.69888306 228.69230652
238.22998047 248.93327332 130.28494263
150.64566040 302.97000122 216.31852722
216.96992493 84.99945831 260.23028564
91.88931274 229.82347107 253.46820068
211.67257690 245.42816162 247.77021790
160.87638855 275.51574707 131.65661621
197.33140564 33.59086609 219.23585510
144.84609985 267.20498657 247.66484070
122.62441254 62.73558044 143.10150146
285.67700195 149.55969238 229.50743103
114.79653168 210.67376709 272.11611938
52.99739838 233.78338623 140.65370178
137.32876587 266.32476807 99.77301788
287.10348511 204.90003967 257.36795044
162.23745728 126.97039795 39.62588120
76.71792603 147.82696533 50.93158340
63.84638596 170.07109070 56.55499268
135.28202820 282.44146729 166.97528076
235.23301697 256.70547485 145.95214844
139.85144043 165.72999573 285.90933228
203.06182861 147.33206177 289.05114746
214.18347168 39.37726212 183.17541504
112.81423187 189.59437561 22.35937309
194.27792358 236.39929199 66.66378021
141.38751221 237.15689087 257.15393066
261.87292480 170.80685425 102.46553802
248.52503967 64.18146515 213.96290588
139.65556335 81.88195038 91.32702637
156.55076599 203.81433105 273.97140503
77.49384308 139.84889221 54.76780701
231.43273926 53.50181198 180.90127563
156.70574951 152.21282959 287.61145020
170.93998718 62.78353882 130.88095093
181.20321655 159.80331421 284.68655396
59.60673904 232.42669678 77.53572845
305.05368042 187.99467468 180.26119995
227.76287842 236.96560669 104.31550598
205.58018494 106.95610809 101.79781342
92.36279297 74.68903351 224.11027527
159.12236023 184.41773987 279.96258545
102.20323944 155.02629089 27.97039032
111.75732422 78.28750610 120.55417633
259.80944824 178.16398621 105.84906769
205.52062988 176.78233337 64.84481812
189.99716187 186.84028625 276.05151367
239.97532654 205.23619080 267.41888428
168.23844910 228.18162537 45.38526535
129.11013794 30.12524414 211.04919434
215.32298279 56.00895691 159.63522339
98.82945251 274.35244751 188.76824951
119.84896088 286.52127075 228.04327393
54.62845612 145.74131775 154.90693665
296.26010132 126.00594330 181.54638672
173.89971924 146.58700562 38.12265396
141.18127441 122.27447510 42.23143387
229.09440613 105.98276520 118.28396606
235.18374634 172.60633850 87.43588257
232.93652344 256.20104980 226.66773987
248.65869141 104.85157013 131.18368530
3 539 509 594
3 58 750 710
3 130 128 127
3 10 13 12
3 362 361 433
3 258 260 259
3 679 715 651
3 84 89 90
3 439 441 363
3 523 369 376
3 271 542 277
3 545 615 609
3 534 49 50
3 326 318 642
3 723 685 683
3 474 478 475
3 149 152 151
3 443 436 419
3 50 49 749
3 385 381 384
3 320 319 452
3 344 345 329
3 29 30 36
3 390 389 398
3 98 115 118
3 134 290 288
3 44 559 9
3 720 608 677
3 90 97 94
3 33 280 26
3 657 655 469
3 443 416 417
3 109 112 122
3 44 9 689
3 129 128 130
3 423 343 422
3 46 220 219
3 281 530 684
3 184 750 246
3 136 135 164
3 88 206 718
3 574 619 160
3 314 688 312
3 473 475 476
3 265 264 263
3 388 389 570
3 665 234 733
3 22 23 689
3 326 368 367
3 314 313 748
3 96 97 90
3 739 682 79
3 259 260 356
3 655 666 460
3 731 496 477
3 246 244 245
3 397 396 399
3 545 283 282
3 505 525 391
3 68 521 88
3 527 343 341
3 566 643 609
3 663 655 754
3 575 740 716
3 655 625 754
3 345 402 558
3 78 739 79
3 328 301 451
3 377 378 483
3 667 95 281
3 462 464 463
3 474 456 478
3 12 241 243
3 688 444 668
3 91 637 93
3 475 470 472
3 7 279 271
3 443 671 753
3 206 85 534
3 22 40 42
3 472 647 475
3 87 206 88
3 404 496 403
3 750 250 582
3 266 702 306
3 420 421 443
3 337 342 341
3 164 123 136
3 166 509 164
3 630 234 665
3 10 6 7
3 748 313 641
3 103 101 104
3 308 556 309
3 255 137 139
3 655 657 625
3 468 467 469
3 443 437 436
3 735 162 593
3 81 73 80
3 189 181 188
3 683 249 248
3 701 103 104
3 22 21 43
3 147 148 150
3 266 306 309
3 428 429 424
3 739 78 572
3 175 17 251
3 740 724 735
3 620 116 115
3 309 264 266
3 719 73 81
3 563 223 190
3 350 348 609
3 446 561 447
3 478 456 457
3 346 601 658
3 694 49 534
3 167 169 168
3 750 184 250
3 290 134 645
3 198 632 637
3 253 613 679
3 489 371 372
3 660 714 617
3 587 229 544
3 227 229 226
3 207 600 215
3 683 248 179
3 623 26 280
3 605 482 267
3 224 686 18
3 391 392 716
3 318 323 324
3 258 257 297
3 713 624 567
3 691 622 123
3 693 341 343
3 443 419 420
3 627 148 514
3 143 145 142
3 666 633 461
3 204 194 188
3 501 118 120
3 325 642 698
3 53 749 49
3 142 549 141
3 493 747 139
3 287 591 132
3 44 20 559
3 60 581 59
3 650 531 699
3 63 61 59
3 262 260 264
3 225 227 226
3 276 200 203
3 372 373 375
3 640 728 557
3 150 149 151
3 219 485 18
3 627 541 745
3 502 318 668
3 519 604 675
3 372 369 370
3 392 391 393
3 182 180 64
3 297 449 296
3 360 361 362
3 60 64 62
3 256 643 734
3 308 512 556
3 561 494 683
3 9 672 278
3 488 552 155
3 720 677 706
3 719 632 217
3 201 11 5
3 543 503 687
3 722 673 310
3 372 371 384
3 439 437 438
3 295 298 296
3 570 413 495
3 482 480 326
3 433 439 440
3 336 331 333
3 183 187 185
3 523 370 369
3 488 624 713
3 71 72 77
3 702 308 307
3 122 522 109
3 189 194 193
3 399 398 397
3 603 549 158
3 683 685 561
3 683 178 723
3 646 702 266
3 271 9 270
3 419 418 341
3 337 336 335
3 519 396 397
3 172 196 195
3 78 721 218
3 618 512 308
3 671 507 603
3 637 81 742
3 403 343 429
3 680 19 562
3 120 118 119
3 740 394 518
3 699 585 650
3 130 131 591
3 157 549 156
3 559 20 680
3 668 444 502
3 598 644 594
3 404 403 405
3 179 246 176
3 225 0 594
3 242 243 240
3 572 107 596
3 154 155 146
3 562 273 680
3 530 623 100
3 374 375 373
3 328 319 652
3 58 56 55
3 249 188 247
3 294 265 263
3 322 489 372
3 326 455 510
3 406 407 444
3 512 540 451
3 229 231 230
3 465 466 477
3 434 435 432
3 35 34 33
3 416 415 417
3 55 233 232
3 197 180 181
3 350 351 352
3 197 191 190
3 188 182 183
3 241 239 242
3 721 583 752
3 309 355 610
3 135 123 622
3 9 278 689
3 182 181 180
3 459 468 469
3 503 543 744
3 399 400 560
3 375 252 376
3 469 602 657
3 731 616 558
3 272 273 275
3 487 619 700
3 535 363 741
3 322 316 489
3 40 22 689
3 306 702 307
3 288 138 137
3 335 334 337
3 520 593 171
3 394 575 392
3 612 624 488
3 95 118 501
3 568 679 124
3 294 267 265
3 203 493 547
3 337 340 331
3 442 416 443
3 98 118 97
3 3 242 238
3 139 555 255
3 253 727 715
3 183 184 187
3 604 570 738
3 105 235 234
3 86 85 88
3 299 508 654
3 132 133 134
3 345 344 403
3 326 722 611
3 468 463 467
3 79 77 78
3 36 27 26
3 714 209 208
3 55 710 649
3 194 172 193
3 45 21 222
3 196 204 737
3 535 576 517
3 585 608 703
3 326 479 455
3 343 403 344
3 463 464 410
3 100 102 708
3 455 453 315
3 550 706 171
3 548 252 253
3 270 9 273
3 271 279 278
3 608 161 574
3 477 616 731
3 143 141 156
3 422 343 527
3 26 623 588
3 117 116 620
3 444 705 364
3 146 155 147
3 171 677 170
3 65 183 182
3 473 404 387
3 670 734 566
3 449 744 450
3 210 209 714
3 678 29 242
3 126 135 622
3 477 473 476
3 130 591 568
3 741 363 416
3 565 178 177
3 228 3 226
3 364 430 432
3 529 490 734
3 1 15 14
3 572 752 107
3 147 697 148
3 362 363 360
3 522 113 24
3 484 715 727
3 703 532 153
3 406 408 358
3 403 402 345
3 244 187 245
3 571 188 249
3 171 593 162
3 470 748 647
3 143 144 145
3 513 643 256
3 356 351 349
3 174 580 636
3 170 169 171
3 301 556 512
3 734 490 591
3 325 321 618
3 176 57 177
3 93 637 742
3 126 133 127
3 377 383 716
3 208 210 214
3 711 224 712
3 293 549 292
3 592 638 279
3 687 751 663
3 429 405 403
3 168 699 167
3 23 22 43
3 658 259 346
3 424 527 418
3 382 383 377
3 156 154 143
3 279 638 707
3 397 398 519
3 139 138 288
3 264 261 298
3 470 647 472
3 589 491 597
3 255 256 137
3 420 599 421
3 638 592 243
3 721 604 738
3 518 535 517
3 509 166 167
3 307 308 309
3 177 683 179
3 572 78 218
3 492 601 357
3 714 533 210
3 305 591 304
3 217 212 77
3 385 505 383
3 658 445 447
3 42 40 37
3 15 13 11
3 639 722 310
3 188 181 182
3 199 497 493
3 546 724 635
3 570 604 388
3 582 250 184
3 247 188 244
3 403 496 402
3 642 368 326
3 624 104 280
3 113 522 122
3 478 476 475
3 529 303 304
3 343 344 329
3 518 486 740
3 569 405 429
3 121 120 119
3 236 105 234
3 528 74 217
3 565 234 630
3 90 92 91
3 481 482 605
3 463 410 477
3 162 735 724
3 264 265 266
3 238 4 3
3 406 525 505
3 754 543 626
3 328 452 319
3 703 153 659
3 510 455 315
3 460 459 469
3 597 491 251
3 563 192 491
3 289 290 622
3 331 400 399
3 401 330 558
3 448 447 640
3 652 370 523
3 108 110 26
3 466 412 477
3 377 375 374
3 594 227 225
3 560 400 558
3 280 33 32
3 363 628 360
3 637 91 92
3 729 483 716
3 103 504 102
3 420 419 599
3 271 278 672
3 659 531 585
3 181 191 197
3 245 187 246
3 659 746 531
3 477 410 465
3 640 449 448
3 142 141 143
3 74 528 77
3 84 694 534
3 738 570 721
3 29 707 638
3 82 694 742
3 413 414 412
3 29 40 662
3 640 503 744
3 203 286 285
3 55 537 54
3 488 584 612
3 110 109 26
3 384 371 385
3 272 276 273
3 5 202 201
3 549 578 292
3 305 304 652
3 289 288 290
3 106 537 107
3 171 661 124
3 36 24 37
3 417 438 437
3 240 241 242
3 292 578 660
3 330 401 331
3 350 609 615
3 217 74 73
3 478 467 463
3 639 668 524
3 383 391 716
3 26 109 39
3 365 618 702
3 336 333 396
3 214 215 621
3 742 84 93
3 521 69 620
3 156 634 155
3 53 537 55
3 660 507 669
3 605 480 481
3 177 233 565
3 303 302 304
3 492 349 704
3 433 361 434
3 198 212 217
3 191 181 189
3 471 475 473
3 539 644 164
3 180 725 711
3 631 207 216
3 431 432 430
3 361 359 358
3 538 595 700
3 17 747 16
3 390 398 551
3 514 567 627
3 296 294 295
3 506 410 409
3 545 704 349
3 732 696 675
3 473 496 404
3 14 15 11
3 235 105 733
3 570 560 653
3 676 105 106
3 477 458 616
3 713 514 488
3 232 57 55
3 193 190 189
3 477 476 478
3 561 685 447
3 314 500 569
3 380 317 379
3 613 715 679
3 417 415 439
3 594 644 539
3 549 634 156
3 444 688 314
3 354 654 347
3 335 336 396
3 437 439 433
3 542 276 203
3 705 444 314
3 699 677 585
3 184 183 65
3 146 147 150
3 380 371 489
3 495 413 410
3 556 301 309
3 55 649 52
3 80 82 81
3 11 1 14
3 443 595 538
3 667 216 198
3 447 685 728
3 649 48 50
3 318 698 642
3 282 254 580
3 74 77 72
3 172 173 174
3 112 501 120
3 533 211 210
3 121 118 115
3 309 577 654
3 268 289 269
3 60 180 711
3 421 671 443
3 418 419 424
3 427 428 425
3 419 426 425
3 625 744 543
3 163 661 165
3 596 53 682
3 352 351 356
3 462 468 459
3 151 145 150
3 597 223 589
3 725 197 686
3 579 584 488
3 676 751 526
3 89 84 88
3 637 92 667
3 545 349 350
3 10 243 592
3 148 544 149
3 611 722 524
3 475 456 474
3 217 73 719
3 286 268 269
3 440 363 362
3 417 437 443
3 299 300 302
3 578 507 660
3 487 700 595
3 24 26 38
3 243 242 638
3 229 587 2
3 558 400 401
3 198 216 213
3 379 385 380
3 590 652 252
3 160 140 574
3 163 164 125
3 26 588 108
3 488 148 697
3 656 695 229
3 63 64 61
3 673 722 510
3 193 172 175
3 352 353 350
3 324 698 318
3 544 229 746
3 706 550 720
3 360 359 361
3 226 3 4
3 46 45 222
3 464 461 409
3 335 396 519
3 295 294 298
3 327 646 482
3 10 12 243
3 309 300 577
3 53 49 51
3 77 528 217
3 651 593 124
3 21 24 730
3 35 29 678
3 279 689 278
3 329 345 331
3 541 35 3
3 154 144 143
3 480 454 455
3 190 192 563
3 609 348 347
3 454 744 625
3 203 201 542
3 192 193 491
3 460 469 655
3 636 17 175
3 393 628 363
3 309 306 307
3 692 220 222
3 625 543 754
3 158 140 159
3 238 239 4
3 284 283 254
3 86 88 84
3 47 20 44
3 507 421 599
3 279 7 6
3 424 423 422
3 654 300 299
3 604 395 389
3 76 77 212
3 560 389 390
3 696 211 533
3 101 102 100
3 581 620 59
3 696 732 211
3 179 176 177
3 255 555 580
3 425 437 709
3 393 394 392
3 499 480 605
3 149 746 152
3 209 210 208
3 304 591 529
3 450 744 516
3 288 137 256
3 299 303 743
3 201 202 277
3 284 254 282
3 179 248 246
3 273 559 8
3 337 331 336
3 1 11 201
3 580 254 255
3 323 322 324
3 140 142 145
3 59 61 60
3 400 331 332
3 471 748 470
3 395 604 519
3 519 398 395
3 454 480 499
3 104 624 612
3 332 401 400
3 638 242 29
3 723 630 685
3 431 427 425
3 347 508 299
3 305 652 564
3 285 622 691
3 653 414 570
3 302 300 301
3 609 643 513
3 553 105 236
3 106 648 633
3 531 656 231
3 740 729 716
3 297 257 447
3 488 697 552
3 169 170 168
3 297 260 258
3 379 505 385
3 42 24 21
3 171 124 520
3 604 237 732
3 34 35 541
3 599 419 342
3 410 648 583
3 462 463 468
3 287 256 734
3 8 680 273
3 367 642 325
3 576 700 486
3 139 288 289
3 693 329 331
3 212 75 76
3 567 514 713
3 74 72 71
3 343 423 429
3 536 435 358
3 409 410 464
3 334 507 337
3 391 525 360
3 165 171 169
3 356 349 346
3 343 329 693
3 252 375 253
3 618 366 325
3 675 696 519
3 36 26 24
3 120 121 113
3 453 641 315
3 531 231 699
3 35 31 30
3 447 445 446
3 161 724 546
3 215 701 617
3 387 471 473
3 416 363 415
3 557 503 640
3 171 162 550
3 430 428 427
3 63 67 66
3 16 251 17
3 745 544 627
3 716 483 378
3 259 658 258
3 263 298 294
3 289 547 139
3 175 172 174
3 538 535 416
3 189 190 191
3 233 177 232
3 122 120 113
3 218 721 752
3 312 311 310
3 663 666 655
3 255 609 513
3 226 4 12
3 557 630 665
3 389 395 398
3 275 273 274
3 651 715 593
3 113 116 117
3 652 523 252
3 573 134 133
3 231 509 699
3 705 314 569
3 324 325 698
3 716 392 575
3 399 396 333
3 280 104 101
3 82 80 71
3 324 322 325
3 540 618 321
3 353 354 347
3 105 537 106
3 252 548 515
3 123 164 644
3 160 619 487
3 95 111 530
3 204 172 194
3 150 145 146
3 529 734 670
3 186 187 244
3 206 50 48
3 59 69 68
3 254 283 545
3 491 589 563
3 78 604 721
3 30 29 35
3 482 326 327
3 147 552 697
3 514 148 488
3 726 744 454
3 226 229 228
3 536 444 435
3 102 101 664
3 573 126 622
3 539 164 509
3 132 591 131
3 93 84 90
3 534 85 84
3 482 646 267
3 198 637 667
3 264 260 261
3 648 506 633
3 483 729 740
3 186 244 188
3 316 318 317
3 573 622 290
3 115 116 113
3 683 494 204
3 315 673 510
3 57 58 55
3 127 131 130
3 669 714 660
3 412 466 413
3 190 193 192
3 602 456 606
3 694 82 682
3 33 26 27
3 464 462 461
3 571 249 683
3 274 251 16
3 454 657 602
3 529 591 490
3 537 53 596
3 493 276 275
3 268 286 203
3 695 746 229
3 124 661 125
3 532 140 153
3 50 206 534
3 201 285 1
3 603 158 487
3 360 525 406
3 571 683 204
3 550 162 161
3 439 438 417
3 111 110 108
3 430 364 705
3 623 280 100
3 444 407 502
3 164 135 126
3 663 626 543
3 640 447 728
3 627 544 148
3 569 500 386
3 715 511 554
3 745 587 544
3 325 366 367
3 310 315 312
3 94 92 90
3 39 109 38
3 341 340 337
3 115 114 121
3 229 230 656
3 10 592 6
3 208 617 714
3 105 676 526
3 350 347 348
3 677 608 585
3 206 736 65
3 292 617 291
3 20 47 19
3 41 24 42
3 457 469 478
3 316 317 380
3 610 262 264
3 271 276 542
3 79 71 77
3 455 479 480
3 389 560 570
3 11 13 10
3 596 107 537
3 244 246 247
3 658 601 446
3 530 281 95
3 673 315 310
3 309 654 614
3 88 85 87
3 102 664 103
3 714 334 335
3 373 382 374
3 173 172 282
3 89 88 98
3 277 542 201
3 90 89 98
3 627 34 541
3 648 752 583
3 213 212 198
3 704 601 492
3 252 515 590
3 372 321 322
3 678 242 3
3 631 216 667
3 3 35 678
3 317 318 502
3 475 606 456
3 51 682 53
3 237 604 75
3 319 320 370
3 156 141 157
3 568 129 130
3 122 112 120
3 161 608 720
3 621 215 617
3 356 353 352
3 125 128 124
3 37 24 25
3 679 548 253
3 291 617 584
3 546 635 161
3 649 50 52
3 399 333 331
3 693 331 340
3 227 594 229
3 185 186 188
3 682 49 694
3 733 629 665
3 406 444 408
3 642 367 368
3 107 648 106
3 593 715 554
3 155 154 156
3 547 493 139
3 315 313 312
3 515 548 568
3 661 171 165
3 478 469 467
3 606 647 602
3 106 633 676
3 234 54 236
3 118 95 94
3 152 746 659
3 16 747 275
3 251 491 175
3 663 543 687
3 102 504 708
3 285 691 0
3 484 377 483
3 92 94 95
3 710 56 58
3 268 547 289
3 486 700 635
3 568 124 129
3 165 167 166
3 746 656 531
3 358 408 536
3 538 576 535
3 734 591 287
3 419 425 424
3 565 630 723
3 460 666 461
3 103 701 207
3 100 280 101
3 411 410 413
3 346 259 356
3 71 80 73
3 564 652 591
3 337 507 338
3 175 491 193
3 574 532 703
3 585 703 659
3 30 28 36
3 133 126 573
3 293 584 579
3 68 66 67
3 652 304 302
3 558 402 731
3 213 216 214
3 723 178 565
3 745 2 587
3 691 598 0
3 211 732 237
3 574 161 635
3 471 470 475
3 251 274 562
3 109 110 112
3 100 708 281
3 500 314 748
3 564 591 305
3 667 281 631
3 63 59 67
3 253 375 377
3 337 338 342
3 54 105 553
3 312 688 311
3 737 494 561
3 650 585 531
3 310 311 639
3 170 677 699
3 654 355 614
3 105 526 733
3 169 167 165
3 174 173 282
3 419 436 437
3 586 282 172
3 416 442 538
3 7 202 5
3 140 160 159
3 68 67 59
3 52 50 55
3 529 681 303
3 31 27 30
3 450 717 294
3 88 718 66
3 195 282 586
3 37 29 36
3 568 548 679
3 1 225 15
3 367 618 365
3 215 216 207
3 203 199 493
3 591 652 607
3 649 582 206
3 279 6 592
3 385 383 382
3 560 551 399
3 274 273 562
3 456 602 469
3 219 47 46
3 430 427 431
3 424 429 423
3 555 139 747
3 685 630 728
3 725 224 711
3 113 114 115
3 465 411 466
3 391 383 505
3 124 679 651
3 496 473 477
3 549 142 158
3 425 428 424
3 37 40 29
3 707 689 279
3 656 230 231
3 370 652 319
3 569 386 405
3 552 147 155
3 670 681 529
3 746 695 656
3 31 35 33
3 174 636 175
3 715 613 253
3 3 229 2
3 200 276 497
3 486 635 724
3 350 353 347
3 282 580 174
3 504 103 207
3 185 188 183
3 578 549 507
3 234 235 733
3 406 379 407
3 285 201 203
3 76 604 77
3 265 267 266
3 149 544 746
3 506 648 410
3 447 258 658
3 219 19 47
3 214 216 215
3 517 576 486
3 142 140 158
3 320 321 370
3 573 645 134
3 607 515 591
3 554 735 593
3 165 166 164
3 112 110 111
3 273 9 559
3 271 672 9
3 144 146 145
3 61 64 60
3 445 658 446
3 382 381 385
3 342 338 339
3 382 373 381
3 76 75 604
3 277 202 271
3 12 13 15
3 551 560 390
3 605 516 726
3 700 619 574
3 393 535 394
3 415 363 441
3 557 728 630
3 434 432 433
3 563 589 223
3 743 609 347
3 363 440 439
3 691 644 598
3 38 109 522
3 603 753 671
3 64 63 65
3 302 303 299
3 631 708 504
3 117 485 692
3 416 535 741
3 269 289 286
3 157 141 549
3 451 301 512
3 18 686 223
3 604 389 388
3 429 430 569
3 612 617 701
3 32 34 567
3 452 328 451
3 725 686 224
3 237 212 211
3 219 692 485
3 206 48 649
3 410 583 495
3 118 94 97
3 107 752 648
3 726 499 605
3 117 620 581
3 704 205 561
3 618 367 366
3 253 690 727
3 88 66 68
3 177 178 683
3 309 301 300
3 524 668 318
3 507 339 338
3 65 63 66
3 652 515 607
3 128 125 126
3 451 540 321
3 748 386 500
3 454 499 726
3 0 1 285
3 710 750 649
3 519 714 335
3 549 293 634
3 614 355 309
3 117 581 485
3 358 435 361
3 743 347 299
3 554 511 735
3 386 387 404
3 97 96 98
3 70 71 79
3 602 647 454
3 113 692 222
3 537 105 54
3 275 274 16
3 301 328 302
3 113 121 114
3 83 84 742
3 71 73 74
3 696 533 519
3 62 64 180
3 386 404 405
3 610 355 262
3 485 60 712
3 151 152 145
3 622 285 286
3 425 433 431
3 487 158 159
3 262 354 356
3 243 241 240
3 375 369 372
3 742 81 82
3 195 545 282
3 609 674 545
3 318 316 322
3 119 118 121
3 484 727 690
3 55 50 749
3 486 724 740
3 716 378 377
3 287 132 288
3 296 261 297
3 128 129 124
3 236 54 553
3 78 77 604
3 60 485 581
3 465 410 411
3 252 523 376
3 311 688 668
3 559 680 8
3 153 140 145
3 595 603 487
3 360 393 391
3 234 233 54
3 229 594 509
3 148 149 150
3 171 706 677
3 744 449 640
3 511 715 484
3 682 739 572
3 745 541 2
3 515 652 590
3 530 588 623
3 168 170 699
3 644 691 123
3 282 283 284
3 498 458 412
3 704 545 195
3 206 582 736
3 712 60 711
3 701 600 207
3 172 204 196
3 377 690 253
3 731 402 496
3 611 318 326
3 255 254 674
3 327 702 646
3 721 495 583
3 558 616 560
3 631 281 708
3 521 99 88
3 654 577 300
3 628 393 360
3 210 211 214
3 570 495 721
3 108 530 111
3 11 7 5
3 466 411 413
3 87 85 206
3 545 674 254
3 223 686 190
3 526 751 629
3 502 407 317
3 612 584 617
3 46 44 45
3 652 302 328
3 720 550 161
3 212 237 75
3 605 267 294
3 507 549 603
3 69 59 620
3 665 503 557
3 735 511 483
3 159 160 487
3 275 747 493
3 312 313 314
3 341 342 419
3 562 19 597
3 56 710 55
3 123 135 136
3 24 113 730
3 126 125 164
3 321 452 451
3 453 647 641
3 433 440 362
3 266 267 646
3 363 535 393
3 620 99 521
3 334 669 507
3 498 616 458
3 477 478 463
3 289 622 286
3 246 248 247
3 620 115 98
3 355 654 354
3 199 200 497
3 434 361 435
3 90 91 93
3 200 199 203
3 37 25 42
3 197 725 180
3 81 637 632
3 704 196 737
3 662 707 29
3 653 560 414
3 81 632 719
3 326 480 479
3 670 566 609
3 232 177 57
3 431 433 432
3 483 511 484
3 71 682 82
3 748 471 386
3 516 744 726
3 687 665 629
3 288 132 134
3 187 184 246
3 663 751 676
3 567 34 627
3 39 38 26
3 503 665 687
3 570 414 413
3 381 373 384
3 505 379 406
3 498 560 616
3 222 21 730
3 689 662 40
3 65 182 64
3 586 172 195
3 461 459 460
3 1 0 225
3 533 714 519
3 58 176 750
3 582 649 750
3 481 480 482
3 321 325 322
3 374 382 377
3 689 23 43
3 504 207 631
3 71 70 682
3 111 501 112
3 567 280 32
3 501 111 95
3 350 615 545
3 555 636 580
3 448 297 447
3 444 364 435
3 610 264 309
3 138 139 137
3 349 351 350
3 737 561 205
3 432 435 364
3 154 146 144
3 588 530 108
3 421 507 671
3 204 494 737
3 394 535 518
3 66 206 65
3 25 24 41
3 555 17 636
3 127 128 126
3 47 44 46
3 184 736 582
3 634 293 155
3 488 155 579
3 27 31 33
3 18 485 712
3 601 561 446
3 332 331 401
3 704 561 601
3 562 597 251
3 461 462 459
3 471 387 386
3 365 327 367
3 376 369 375
3 219 220 692
3 354 262 355
3 380 385 371
3 643 566 734
3 659 153 152
3 690 377 484
3 354 353 356
3 547 268 203
3 635 700 574
3 288 256 287
3 4 239 12
3 176 58 57
3 257 258 447
3 455 454 647
3 242 239 238
3 367 327 326
3 84 85 86
3 308 702 618
3 0 598 594
3 660 617 292
3 684 530 100
3 722 639 524
3 339 599 342
3 330 331 345
3 291 293 292
3 341 418 527
3 425 709 433
3 740 575 394
3 228 229 3
3 66 718 206
3 633 506 461
3 10 7 11
3 189 188 194
3 358 359 406
3 28 30 27
3 217 632 198
3 298 261 296
3 365 702 327
3 280 567 624
3 131 127 132
3 317 407 379
3 667 92 95
3 681 670 743
3 294 717 605
3 717 450 516
3 430 705 569
3 55 749 53
3 680 20 19
3 415 441 439
3 574 703 608
3 239 241 12
3 512 618 540
3 213 214 211
3 370 321 372
3 674 609 255
3 668 639 311
3 714 669 334
3 736 184 65
3 591 515 568
3 574 140 532
3 270 276 271
3 600 701 215
3 208 214 621
3 687 629 751
3 584 293 291
3 601 346 357
3 449 297 448
3 204 188 571
3 263 264 298
3 414 560 498
3 647 453 455
3 224 18 712
3 700 576 538
3 290 645 573
3 98 96 90
3 437 425 426
3 599 339 507
3 46 221 220
3 229 509 231
3 422 527 424
3 742 694 83
3 36 28 27
3 296 449 294
3 32 33 34
3 647 606 475
3 356 260 262
3 125 661 163
3 743 670 609
3 380 489 316
3 596 682 572
3 83 694 84
3 347 654 508
3 103 664 101
3 641 647 748
3 223 597 19
3 449 450 294
3 15 225 226
3 733 526 629
3 196 704 195
3 62 180 60
3 18 19 219
3 124 593 520
3 666 676 633
3 707 662 689
3 524 318 611
3 730 113 222
3 493 497 276
3 218 752 572
3 737 205 704
3 88 99 98
3 165 164 163
3 322 323 318
3 538 442 443
3 222 220 221
3 621 617 208
3 42 25 41
3 167 699 509
3 717 516 605
3 51 49 682
3 45 43 21
3 297 261 260
3 340 341 693
3 612 701 104
3 187 186 185
3 3 2 541
3 406 359 360
3 722 326 510
3 408 444 536
3 579 155 293
3 384 373 372
3 132 127 133
3 412 414 498
3 517 486 518
3 753 603 595
3 437 426 419
3 226 12 15
3 675 604 732
3 686 197 190
3 275 276 272
3 19 18 223
3 443 753 595
3 399 551 398
3 161 162 724
3 321 320 452
3 689 43 44
3 315 641 313
3 43 45 44
3 100 281 684
3 513 256 255
3 558 330 345
3 98 99 620
3 454 625 657
3 273 276 270
3 429 428 430
3 433 709 437
3 247 248 249
3 456 469 457
3 357 349 492
3 69 521 68
3 202 7 271
3 747 17 555
3 483 740 735
3 42 21 22
3 754 626 663
3 743 303 681
3 213 211 212
3 682 70 79
3 676 666 663
3 692 113 117
3 409 461 506
3 357 346 349
3 477 412 458
3 222 221 46
3 54 233 55
3 246 750 176
3 233 234 565
3 153 145 152
3 24 38 522
